<?xml version="1.0" encoding="utf-8"?>
<!-- Generator: Adobe Illustrator 18.1.1, SVG Export Plug-In . SVG Version: 6.00 Build 0)  -->
<svg version="1.1" id="Laag_1" xmlns="http://www.w3.org/2000/svg" xmlns:xlink="http://www.w3.org/1999/xlink" x="0px" y="0px"
	 viewBox="0 0 1000 830" enable-background="new 0 0 1000 830" xml:space="preserve">
<g>
	<g>
		<path fill="#575756" d="M684,457.2H316c-18.9,0-34.2-15.3-34.2-34.2v17.1c0,18.9,15.3,34.2,34.2,34.2h368
			c18.9,0,34.2-15.3,34.2-34.2v-17.1C718.2,441.8,702.9,457.2,684,457.2z"/>
		<path fill="#F2F2F2" d="M684,37.8H316c-18.9,0-34.2,15.3-34.2,34.2v350.9c0,18.9,15.3,34.2,34.2,34.2h368
			c18.9,0,34.2-15.3,34.2-34.2V72C718.2,53.1,702.9,37.8,684,37.8z"/>
		<path fill="none" d="M589.9,349.1c-25.3-4.2-56,0.1-68.8,9.6c-12.7,9.5-2.6,20.6,22.6,24.8c25.2,4.2,56-0.1,68.8-9.6
			C625.3,364.3,615.1,353.3,589.9,349.1z M595.5,371c-7.8,5.8-26.5,8.4-41.8,5.8c-15.3-2.5-21.5-9.3-13.7-15.1
			c7.7-5.8,26.5-8.4,41.8-5.8C597.1,358.5,603.3,365.3,595.5,371z"/>
		<path opacity="0.1" fill="#787473" d="M484.3,428.4c0,0-0.1,0-0.2,0c0,0-2.3-5.5-3.8-13.9c-17.5,0.8-31,6.1-31,12.7
			c0,7.1,15.8,12.8,35.3,12.8c19.5,0,35.3-5.7,35.3-12.8c0-2.2-1.7-4.2-4.4-6.1C497.1,425.8,484.4,428.5,484.3,428.4
			C484.4,428.5,484.3,428.5,484.3,428.4z"/>
		<g opacity="0.5">
			<path fill="#009990" d="M599.9,342.5c-37.6-6.2-83.5,0.2-102.5,14.3c0,0,0,0,0,0c-0.1,0.1-0.7,0.5-1.4,1.3
				c-1.7,1.5-4.7,4.5-5.5,5.9c-13,17.3-12.5,37.5-10.1,50.5c1.5,8.4,3.8,13.9,3.8,13.9c0.1,0,0.1,0,0.2,0c0,0,0,0.1,0,0.1
				c0,0,12.7-2.7,31.2-7.4c30.3-7.6,76.1-20.5,106.5-35.3c2.5-1.1,7.2-3.8,9.5-5.2c1.2-0.7,1.8-1.1,1.9-1.2c0,0,0,0,0,0
				C652.5,365.3,637.5,348.7,599.9,342.5z M612.5,373.8c-12.7,9.5-43.5,13.8-68.8,9.6c-25.2-4.2-35.4-15.3-22.6-24.8
				c12.8-9.5,43.5-13.8,68.8-9.6C615.1,353.3,625.3,364.3,612.5,373.8z"/>
			<path fill="#575756" d="M581.8,356c-15.3-2.5-34,0.1-41.8,5.8c-7.8,5.8-1.6,12.5,13.7,15.1c15.3,2.5,34.1-0.1,41.8-5.8
				C603.3,365.3,597.1,358.5,581.8,356z"/>
		</g>
		<path fill="#009990" d="M593.1,172c0,0,0-0.1,0-0.1c0-59.9-48.5-108.4-108.4-108.4c0,0,0,0,0,0c-59.9,0-108.4,48.5-108.4,108.4
			c0,0,0,0.1,0,0.1c0,0.4,0,2,0.4,5.2c0.6,6.3,1.8,18.4,3.2,23.6c22.1,110.9,104.7,227.1,104.7,227.1c0-0.1,0.1-0.2,0.1-0.3
			c0,0.1,0.1,0.2,0.1,0.3c0,0,82.6-116.2,104.7-227.1c1.4-5.3,2.6-17.3,3.2-23.6C593.1,174,593.1,172.4,593.1,172z M483.2,237.5
			c-40.2,0-72.8-32.6-72.8-72.7c0-40.2,32.6-72.8,72.8-72.8c40.2,0,72.7,32.6,72.7,72.8C556,204.9,523.4,237.5,483.2,237.5z"/>
		<circle fill="#575756" cx="484.2" cy="164.8" r="44.2"/>
	</g>
	<g>
		<path fill="#575756" d="M126.4,789.1c-0.4-0.4-0.5-1-0.1-1.4c0.4-0.4,1.1-0.5,1.5-0.1c0.1,0.1,5.9,5.3,13.5,5.3
			c7.2,0,13.1-4.2,13.1-9.4c0-6.1-5.9-7.4-12.1-8.8c-6.3-1.5-13.5-3.2-13.5-10.6c0-5.3,5.7-9.6,12.5-9.6c7.9,0,12,4.6,12.2,4.8
			c0.4,0.4,0.3,1.1-0.1,1.5c-0.5,0.4-1.1,0.3-1.5-0.1c-0.1-0.1-3.7-4.1-10.7-4.1c-5.7,0-10.4,3.3-10.4,7.5c0,5.7,5.5,7,11.9,8.6
			c6.5,1.5,13.8,3.1,13.8,10.8c0,6.4-6.7,11.4-15.2,11.4C132.8,794.9,126.6,789.4,126.4,789.1z"/>
		<path fill="#575756" d="M182.8,756.3c0,0.6-0.5,1-1,1h-6.5v31.6c0,2.3,1.9,4.1,4.1,4.1c0.6,0,1.1,0.4,1.1,1c0,0.6-0.5,1-1.1,1
			c-3.4,0-6.2-2.7-6.2-6.1v-31.6h-6.8c-0.6,0-1.1-0.4-1.1-1c0-0.6,0.5-1.1,1.1-1.1h6.8v-15.9c0-0.6,0.4-1,1-1c0.6,0,1.1,0.5,1.1,1
			v15.9h6.5C182.3,755.2,182.8,755.7,182.8,756.3z"/>
		<path fill="#575756" d="M232.5,756.3v37.5c0,0.6-0.4,1-1,1c-0.6,0-1.1-0.4-1.1-1V784c-3.1,6.5-9.4,10.9-16.7,10.9
			c-10.4,0-18.7-9-18.7-19.8c0-10.8,8.3-19.8,18.7-19.8c7.3,0,13.6,4.5,16.7,10.9v-9.9c0-0.5,0.4-1.1,1.1-1.1
			C232.1,755.2,232.5,755.8,232.5,756.3z M230.5,775.1c0-9.8-7.5-17.7-16.7-17.7c-9.1,0-16.7,7.9-16.7,17.7
			c0,9.9,7.5,17.8,16.7,17.8C223,792.9,230.5,784.9,230.5,775.1z"/>
		<path fill="#575756" d="M249.6,775.3c-0.1-0.2-0.1-0.2,0-0.5v-18.5c0-0.6,0.5-1.1,1-1.1c0.6,0,1,0.5,1,1.1v13.4
			c0.6-1.5,1.5-3.1,2.5-4.7c3.1-4.6,8.2-9.8,15.8-9.8c0.6,0,1.1,0.5,1.1,1.1c0,0.6-0.4,1-1.1,1c-5,0-8.8,2.4-11.5,5.4
			c-2.8,3.2-4.8,7.3-5.8,9.8c-0.6,1.8-1,2.7-1,2.7v18.5c0,0.6-0.3,1-1,1c-0.5,0-1-0.4-1-1V775.3z"/>
		<path fill="#575756" d="M298.3,756.3c0,0.6-0.5,1-1.1,1h-6.5v31.6c0,2.3,1.9,4.1,4.1,4.1c0.6,0,1,0.4,1,1c0,0.6-0.5,1-1,1
			c-3.4,0-6.2-2.7-6.2-6.1v-31.6h-6.8c-0.6,0-1.1-0.4-1.1-1c0-0.6,0.5-1.1,1.1-1.1h6.8v-15.9c0-0.6,0.4-1,1-1c0.6,0,1.1,0.5,1.1,1
			v15.9h6.5C297.8,755.2,298.3,755.7,298.3,756.3z"/>
		<path fill="#575756" d="M376.9,771.3c0-7.8-6.2-14-13.7-14c-7.5,0-13.7,6-13.9,13.4v0.6v22.6c0,0.2,0,0.2-0.1,0.3
			c0,0.1-0.1,0.2-0.1,0.2c-0.1,0.1-0.1,0.1-0.1,0.2c-0.2,0.2-0.5,0.3-0.8,0.3c-0.6,0-1-0.5-1-1v-22.6c0-7.8-6.2-14-13.9-14
			c-7.4,0-13.6,6-13.8,13.4v23.1c0,0.2-0.1,0.4-0.2,0.6c-0.1,0.1-0.1,0.1-0.1,0.2c-0.1,0-0.1,0.1-0.2,0.1c-0.2,0.2-0.4,0.2-0.6,0.2
			h-0.2c-0.5-0.1-0.9-0.5-0.9-1v-22.6c0-0.6,0.1-1.3,0.2-1.9v-13c0-0.7,0.3-1.1,1-1.1c0.5,0,1,0.4,1,1.1v7.2
			c2.8-4.9,7.9-8.3,13.8-8.3c6.8,0,12.6,4.3,14.9,10.4c2.3-6.1,8.1-10.4,15-10.4c8.7,0,15.8,7.2,15.8,16v22.6c0,0.6-0.4,1-1,1
			c-0.5,0-1.1-0.5-1.1-1V771.3z"/>
		<path fill="#575756" d="M391.5,775.1c0.2-11,8.7-19.8,19.3-19.8c10.1,0,18.3,8,19,18.3v0.1v0.2v0.1c-0.1,0.5-0.5,1-1,1h-35.3v0.2
			c0,9.7,7.7,17.7,17.2,17.8c6,0,11.2-3.2,14.2-8.1c0.3-0.5,0.9-0.5,1.5-0.2c0.4,0.2,0.6,0.9,0.2,1.4c-3.4,5.3-9.3,9-15.9,9
			C400.1,794.7,391.6,785.9,391.5,775.1z M393.6,772.9h34.1c-1.1-8.8-8.3-15.5-17-15.5C401.9,757.3,394.6,764.1,393.6,772.9z"/>
		<path fill="#575756" d="M442.8,756.3c0-0.6,0.4-1.1,1.1-1.1c0.5,0,1,0.5,1,1.1v22.6c0,7.8,6.2,14,13.8,14c7.7,0,13.9-6.2,13.9-14
			v-22.6c0-0.6,0.6-1.1,1.1-1.1c0.6,0,1,0.5,1,1.1v22.6c0,8.9-7.2,16-16,16c-8.7,0-15.9-7.1-15.9-16V756.3z"/>
		<path fill="#575756" d="M493.2,775.6v-0.8V774v-17.7c0-0.7,0.4-1.1,1.1-1.1c0.6,0,1,0.4,1,1.1v9.8c3.1-6.5,9.5-10.8,16.9-10.8
			c10.7,0,19.1,8.7,19.1,19.6c0,10.8-8.4,19.7-19.1,19.7c-7.4,0-13.8-4.5-16.9-10.8v27.4c0,0.6-0.4,1.1-1,1.1
			c-0.6,0-1.1-0.4-1.1-1.1V775.6z M495.2,774.8c0,9.7,7.7,17.6,16.9,17.6c9.3,0,17-7.9,17-17.6c0-9.6-7.7-17.6-17-17.6
			c-9,0-16.6,7.5-16.9,16.8V774.8z"/>
		<path fill="#575756" d="M546.6,776v-1v-0.8v-34.7c0-0.6,0.4-1.2,1.1-1.2c0.5,0,1,0.6,1,1.2v26.7c3.2-6.5,9.6-10.9,17.1-10.9
			c10.7,0,19.3,8.9,19.3,19.7c0,10.9-8.6,19.9-19.3,19.9c-7.4,0-13.9-4.4-17.1-10.8v9.8c0,0.6-0.5,1-1,1c-0.6,0-1.1-0.5-1.1-1V776z
			 M548.6,775c0,9.9,7.8,17.9,17.1,17.9c9.5,0,17.2-8,17.2-17.9c0-9.8-7.8-17.7-17.2-17.7c-9.1,0-16.7,7.5-17.1,17V775z"/>
		<path fill="#575756" d="M599.2,756.3c0-0.6,0.4-1.1,1.1-1.1c0.5,0,1,0.5,1,1.1v22.6c0,7.8,6.2,14,13.8,14c7.7,0,13.9-6.2,13.9-14
			v-22.6c0-0.6,0.6-1.1,1.1-1.1c0.6,0,1.1,0.5,1.1,1.1v22.6c0,8.9-7.2,16-16,16c-8.7,0-15.9-7.1-15.9-16V756.3z"/>
		<path fill="#575756" d="M684.2,794.9c-0.5,0-1-0.5-1-1V784c-3.2,6.4-9.6,10.8-17.1,10.8c-10.7,0-19.3-9-19.3-19.9
			c0-10.8,8.6-19.7,19.3-19.7c7.4,0,13.9,4.4,17.1,10.9v-26.7c0-0.6,0.5-1.2,1-1.2c0.7,0,1.1,0.6,1.1,1.2v34.7v0.8v1v17.9
			C685.2,794.4,684.8,794.9,684.2,794.9z M683.2,774.3c-0.3-9.5-8-17-17.1-17c-9.5,0-17.2,7.9-17.2,17.7c0,9.9,7.8,17.9,17.2,17.9
			c9.3,0,17.1-8,17.1-17.9V774.3z"/>
		<path fill="#575756" d="M737.6,794.9c-0.5,0-1-0.5-1-1V784c-3.2,6.4-9.6,10.8-17.1,10.8c-10.7,0-19.3-9-19.3-19.9
			c0-10.8,8.6-19.7,19.3-19.7c7.4,0,13.9,4.4,17.1,10.9v-26.7c0-0.6,0.5-1.2,1-1.2c0.6,0,1.1,0.6,1.1,1.2v34.7v0.8v1v17.9
			C738.6,794.4,738.2,794.9,737.6,794.9z M736.6,774.3c-0.3-9.5-8-17-17.1-17c-9.5,0-17.2,7.9-17.2,17.7c0,9.9,7.8,17.9,17.2,17.9
			c9.3,0,17.1-8,17.1-17.9V774.3z"/>
		<path fill="#575756" d="M753,756.3c0-0.6,0.4-1.1,1-1.1c0.5,0,1,0.5,1,1.1v22.6c0,7.6,6.2,13.8,13.9,13.8
			c7.4,0,13.4-5.9,13.7-13.3v-23.1v-0.2c0-0.1,0.1-0.2,0.2-0.4c0,0,0-0.1,0.1-0.1l0.2-0.2c0.2-0.1,0.3-0.2,0.6-0.2h0.2
			c0.1,0,0.2,0.1,0.2,0.1l0.2,0.2c0.1,0,0.1,0.1,0.1,0.1c0.2,0.2,0.2,0.4,0.2,0.7v36.3c0,10.2-8.2,18.6-18.6,18.6
			c-2.9,0-5.7-0.7-8.1-1.9c-0.6-0.2-0.7-0.8-0.4-1.4c0.2-0.5,0.8-0.6,1.2-0.5c2.3,1.1,4.6,1.8,7.3,1.8c9.2,0,16.6-7.4,16.6-16.6v-6
			c-2.6,4.9-7.8,8.1-13.7,8.1c-8.8,0-15.9-7.1-15.9-15.9V756.3z"/>
		<path fill="#575756" d="M798.9,790c1.5,0,2.8,1.2,2.8,2.8c0,1.5-1.2,2.8-2.8,2.8c-1.5,0-2.7-1.2-2.7-2.8
			C796.2,791.2,797.4,790,798.9,790z"/>
		<path fill="#575756" d="M815.7,743.5c0-0.6,0.4-1.1,1-1.1c0.5,0,1,0.4,1,1.1v1.9c0,0.5-0.5,1-1,1c-0.6,0-1-0.5-1-1V743.5z
			 M815.7,756.2c0-0.6,0.4-1,1-1c0.5,0,1,0.3,1,1v37.6c0,0.6-0.5,1-1,1c-0.6,0-1-0.5-1-1V756.2z"/>
		<path fill="#575756" d="M855.2,755.2c10.4,0,18.8,8.9,18.8,19.8c0,10.8-8.4,19.8-18.8,19.8c-10.4,0-18.7-9-18.7-19.8
			C836.5,764.1,844.9,755.2,855.2,755.2z M855.2,792.9c9.1,0,16.7-8,16.7-17.8c0-9.9-7.6-17.8-16.7-17.8c-9.1,0-16.7,7.9-16.7,17.8
			C838.5,784.8,846.1,792.9,855.2,792.9z"/>
	</g>
	<path fill="#009990" d="M434.4,720.8c49.3-15.4,107.6-11.9,158.8-11.2c52.9,0.7,105.9,3.6,158.6,7.5c3.5,0.3,3.4-5.1,0-5.4
		c-55.4-4.1-111.1-7.1-166.6-7.6c-49.4-0.4-104.6-3.4-152.2,11.5C429.6,716.6,431.1,721.8,434.4,720.8L434.4,720.8z"/>
	<g>
		<path fill="#575756" d="M22.9,666.3c-0.9-0.9-1.1-2.4-0.2-3.3c0.9-0.9,2.4-1.1,3.3-0.2c0.2,0.2,19.3,17.3,44.2,17.3
			c24.5,0,43.6-13.8,43.6-31.4c0-20.2-19.4-24.7-40-29.4c-21.1-4.9-42.9-10-42.9-33.2c0-16.5,17.6-30.2,39.4-30.2
			c25.1,0,38.1,14.7,38.7,15.4c0.9,0.9,0.7,2.4-0.2,3.3c-1.1,0.7-2.5,0.7-3.3-0.2c-0.2-0.2-12.4-13.8-35.2-13.8
			c-19.1,0-34.7,11.4-34.7,25.4c0,19.4,19.1,24,39.2,28.7c21.4,4.9,43.4,10,43.4,34c0,20.2-21.1,36-48.1,36
			C43.4,684.7,23.6,667,22.9,666.3z"/>
		<path fill="#575756" d="M178,597.1c0,1.3-1.1,2.2-2.3,2.2h-14.5v70.9c0,5.1,4.2,9.3,9.3,9.3c1.3,0,2.4,0.9,2.4,2.2
			c0,1.3-1.1,2.4-2.4,2.4c-7.6,0-13.8-6.2-13.8-13.8v-70.9h-15.3c-1.3,0-2.4-0.9-2.4-2.2c0-1.3,1.1-2.4,2.4-2.4h15.3v-35.6
			c0-1.3,0.9-2.4,2.2-2.4c1.3,0,2.4,1.1,2.4,2.4v35.6h14.5C176.9,594.7,178,595.8,178,597.1z"/>
		<path fill="#575756" d="M289.7,597.1v84.3c0,1.4-0.9,2.4-2.2,2.4c-1.5,0-2.4-0.9-2.4-2.4v-22.2c-6.9,14.5-21.1,24.5-37.4,24.5
			c-23.3,0-42-20.2-42-44.5c0-24.3,18.7-44.5,42-44.5c16.4,0,30.5,10.2,37.4,24.5v-22.2c0-1.1,0.9-2.4,2.4-2.4
			C288.8,594.7,289.7,596,289.7,597.1z M285.2,639.2c0-22-16.9-39.8-37.4-39.8c-20.5,0-37.4,17.8-37.4,39.8c0,22.2,16.9,40,37.4,40
			C268.3,679.2,285.2,661.4,285.2,639.2z"/>
		<path fill="#575756" d="M328.1,639.8c-0.2-0.4-0.2-0.5,0-1.1v-41.6c0-1.3,1.1-2.4,2.2-2.4c1.4,0,2.2,1.1,2.2,2.4v30.2
			c1.4-3.3,3.3-6.9,5.6-10.5c6.9-10.4,18.3-22,35.4-22c1.4,0,2.4,1.1,2.4,2.4c0,1.3-0.9,2.4-2.4,2.4c-11.3,0-19.8,5.4-25.8,12.2
			c-6.4,7.3-10.7,16.3-13.1,22c-1.5,4-2.2,6.2-2.2,6.2v41.6c0,1.4-0.7,2.4-2.2,2.4c-1.1,0-2.2-0.9-2.2-2.4V639.8z"/>
		<path fill="#575756" d="M437.5,597.1c0,1.3-1.1,2.2-2.4,2.2h-14.5v70.9c0,5.1,4.2,9.3,9.3,9.3c1.3,0,2.4,0.9,2.4,2.2
			c0,1.3-1.1,2.4-2.4,2.4c-7.6,0-13.8-6.2-13.8-13.8v-70.9h-15.3c-1.3,0-2.3-0.9-2.3-2.2c0-1.3,1.1-2.4,2.3-2.4h15.3v-35.6
			c0-1.3,0.9-2.4,2.2-2.4c1.3,0,2.4,1.1,2.4,2.4v35.6h14.5C436.4,594.7,437.5,595.8,437.5,597.1z"/>
		<path fill="#575756" d="M584.2,565.8l-46.3,64.5c-0.6,0.5-1.3,0.9-2,0.9h-0.4c-0.9,0-1.6-0.4-2-0.9L487,565.7v115.7
			c0,1.3-0.9,2.4-2.2,2.4c-1.3,0-2.4-1.1-2.4-2.4V559.1c0-1.1,1.1-2.4,2.4-2.4c0.2,0,0.4,0,0.5,0.2c0.5,0,1.1,0.4,1.6,0.7l48.7,67.6
			l48.7-67.6c0.4-0.4,0.9-0.7,1.4-0.7c0.2-0.2,0.4-0.2,0.6-0.2c1.4,0,2.4,1.3,2.4,2.4v122.3c0,1.3-0.9,2.4-2.4,2.4
			c-1.1,0-2.2-1.1-2.2-2.4V565.8z"/>
		<path fill="#575756" d="M627.5,639.2c0.4-24.7,19.4-44.5,43.2-44.5c22.7,0,41.1,18,42.7,41.1v0.2v0.4v0.2
			c-0.2,1.1-1.1,2.2-2.2,2.2H632v0.5c0,21.8,17.3,39.8,38.7,40c13.4,0,25.2-7.3,32-18.2c0.7-1.1,2-1.1,3.3-0.5
			c0.9,0.5,1.3,2,0.5,3.1c-7.6,11.8-20.9,20.2-35.8,20.2C646.9,683.4,627.8,663.6,627.5,639.2z M632.2,634.3h76.7
			c-2.4-19.8-18.7-34.9-38.1-34.9C650.9,599.5,634.6,614.5,632.2,634.3z"/>
		<path fill="#575756" d="M746.7,558.9c0-1.3,0.9-2.4,2.3-2.4c1.3,0,2.2,1.1,2.2,2.4v73.8c0,25.8,20.7,46.1,46.3,46.5
			c25.4-0.4,46.2-20.7,46.3-46.5v-73.8c0-1.3,1.1-2.4,2.4-2.4c1.1,0,2.4,1.1,2.4,2.4v73.8c0,28.3-23.1,51.1-51.1,51.1
			c-28.1,0-50.9-22.7-50.9-51.1V558.9z"/>
		<path fill="#575756" d="M892.5,640.5v-1.8v-1.8v-39.8c0-1.5,0.9-2.4,2.4-2.4c1.3,0,2.2,0.9,2.2,2.4v22c6.9-14.5,21.4-24.3,38-24.3
			c24,0,42.9,19.6,42.9,44c0,24.3-18.9,44.1-42.9,44.1c-16.5,0-31.1-10-38-24.2v61.6c0,1.5-0.9,2.4-2.2,2.4c-1.4,0-2.4-0.9-2.4-2.4
			V640.5z M897,638.7c0,21.8,17.3,39.4,38,39.4c20.9,0,38.2-17.6,38.2-39.4c0-21.6-17.3-39.4-38.2-39.4c-20.2,0-37.2,16.9-38,37.8
			V638.7z"/>
	</g>
</g>
</svg>
