<?xml version="1.0" encoding="utf-8"?>
<!-- Generator: Adobe Illustrator 18.1.1, SVG Export Plug-In . SVG Version: 6.00 Build 0)  -->
<svg version="1.1" id="Layer_1" xmlns="http://www.w3.org/2000/svg" xmlns:xlink="http://www.w3.org/1999/xlink" x="0px" y="0px"
	 viewBox="0 0 308 66" enable-background="new 0 0 308 66" xml:space="preserve">
<g>
	<g>
		<path fill="#FFFFFF" d="M24.3,31.8c-1.3,0-2.4,1.2-2.4,2.5c0,1.4,1.1,2.6,2.5,2.6c1.4,0,2.5-1.1,2.5-2.5
			C26.8,32.9,25.7,31.8,24.3,31.8z"/>
		<path fill="#FFFFFF" d="M48.8,31.8c-1.4,0-2.5,1.1-2.5,2.6c0,1.4,1.1,2.5,2.5,2.5c1.4,0,2.5-1.2,2.5-2.6
			C51.2,32.9,50.1,31.8,48.8,31.8z"/>
		<path fill="#FFFFFF" d="M48,28.4c-0.7-1.9-1.4-3.7-2.1-5.6c-0.4-1.1-0.8-1.3-2-1.3c-4.9,0-9.8,0-14.7,0c-1.1,0-1.5,0.3-1.9,1.3
			c-0.7,1.9-1.4,3.8-2.1,5.7c0,0.1-0.1,0.2-0.1,0.4c1.5,0,2.9,0,4.4,0c0-0.2,0.1-0.5,0.1-0.7c0-0.3,0.2-0.4,0.5-0.4
			c0.3-0.1,0.5-0.2,0.8-0.2c0,0,0-0.1,0-0.1c-0.1-0.2-0.3-0.2-0.4-0.3c-0.2-0.1-0.2-0.3-0.2-0.5c0.1-0.3,0.2-0.7,0.2-1
			c0.1-0.3,0.1-0.7,0.2-1c0.1-0.4,0.3-0.7,0.6-1c0.1-0.1,0.2-0.2,0.4-0.2c0.1,0,0.2,0,0.3-0.1c0.3-0.1,0.6-0.1,0.8,0.1
			c0.3,0.3,0.6,0.6,0.8,1c0.2,0.5,0.3,1.1,0.4,1.7c0,0.1,0,0.1,0.1,0.2c0.1,0.1,0.1,0.2,0.1,0.3c0,0.2-0.1,0.4,0.1,0.5
			c0,0,0,0,0,0.1c-0.1,0.2,0,0.5-0.3,0.6c0,0,0,0,0,0c0.1,0,0.2,0,0.3,0c0.3,0,0.6,0,0.9,0.2c0.2,0.1,0.2,0.3,0.2,0.5
			c0,0.1,0,0.3,0,0.4c0,0,0,0.1,0,0.1c0.7,0,1.4,0,2.1,0c0,0,0,0,0,0c0.1-0.2,0.1-0.4,0.2-0.6c0-0.1,0.1-0.2,0.2-0.2
			c0.3-0.1,0.5-0.2,0.8-0.3c0.5-0.2,1-0.4,1.6-0.6c0.3-0.1,0.4-0.3,0.3-0.6c-0.1-0.2-0.1-0.5-0.2-0.7c0,0,0-0.1,0-0.1
			c-0.2-0.1-0.2-0.4-0.2-0.6c0-0.2,0-0.3,0.1-0.5C40,24.5,40,24.2,40,24c0-0.2,0.1-0.4,0.2-0.6c0.3-0.5,1-0.8,1.6-0.5
			c0.2,0.1,0.3,0.1,0.5,0.2c0.4,0.3,0.5,0.7,0.5,1.1c0,0.1,0,0.3,0,0.4c0,0.1,0,0.3,0,0.4c0,0.2,0,0.5-0.1,0.7
			c-0.2,0.3-0.3,0.6-0.4,0.9c-0.1,0.2,0.1,0.6,0.4,0.7c0.4,0.2,0.7,0.3,1.1,0.5c0.3,0.1,0.6,0.3,1,0.4c0.1,0,0.2,0.1,0.2,0.2
			c0,0.1,0.1,0.2,0.1,0.4c1,0,2,0,3,0C48,28.7,48,28.5,48,28.4z"/>
		<path fill="#FFFFFF" d="M36.6,7C17.5,7,2.1,18.5,2.1,32.7c0,9.4,6.7,17.6,16.8,22c0,0.1,0,0.1,0.1,0.2c0.2,0.7,0.1,1.5-0.3,2.2
			c-0.1,0.3-0.3,0.5-0.5,0.8c-0.1,0.1-0.1,0.2-0.2,0.4c-0.1,0.2-0.3,0.3-0.4,0.5c-0.1,0-0.1,0.1-0.2,0.1c0,0-0.1,0.1-0.1,0.1
			c-0.5,0.8-1.2,1.4-1.9,2c-0.5,0.5-1.2,1-0.5,1.4c0.8,0.4,2.9-0.4,3.6-0.7c0.9-0.3,1.7-0.6,2.6-0.9c0.2-0.1,0.4-0.2,0.7-0.3
			c0.2-0.1,0.3-0.2,0.5-0.2c0.7-0.3,1.5-0.7,2.2-0.9c1.9-0.8,4.5-1.2,7.4-1.2c1.5,0.2,3.1,0.2,4.7,0.2c19,0,34.5-11.5,34.5-25.7
			C71,18.5,55.6,7,36.6,7z M54.4,42.7c-1,0-1.9,0-2.8,0c0,0.6,0,1.2,0,1.7c0,0.7,0,1.5-0.1,2.2c-0.2,1.2-1.3,2-2.5,2
			c-1.2,0-2.4-0.7-2.6-1.9c-0.2-1-0.1-2-0.2-3c0-0.3,0-0.6,0-0.9c-6.5,0-12.8,0-19.3,0c0,1.1,0,2.2,0,3.2c-0.1,2.1-2.2,3.3-3.9,2.3
			c-1-0.6-1.4-1.5-1.4-2.6c0-1,0-2,0-3c-1,0-1.9,0-2.8,0c0-3.4-0.1-6.7,0-10c0.1-1.7,1.1-2.9,2.7-3.6c0.3-0.1,0.6-0.4,0.7-0.7
			c0.9-2.2,1.8-4.5,2.7-6.8c0.8-2,2-2.9,4.2-2.9c5,0,10.1,0,15.1,0c2.2,0,3.4,0.9,4.2,2.9c0.9,2.3,1.7,4.5,2.6,6.8
			c0.1,0.3,0.3,0.5,0.6,0.6c1.9,0.7,2.9,2.2,2.9,4.2c0,2.9,0,5.7,0,8.6C54.4,42.1,54.4,42.3,54.4,42.7z"/>
	</g>
	<g>
		<path fill="#FFFFFF" d="M85,58.3v-51h23.5v9.2H95.2V28h11.5v9.2H95.2v12h13.3v9.2H85z"/>
		<path fill="#FFFFFF" d="M138,55.2c-2.6,2.4-5.7,3.7-9.9,3.7c-5.7,0-8.7-2.3-11.1-5.1c-4.1-4.9-3.8-14-3.8-20.9s-0.3-16.2,3.8-21.1
			c2.4-2.8,5.4-5.1,11.1-5.1c4.2,0,7.3,1.2,9.9,3.7c2.6,2.5,4.3,6.5,4.5,11.4h-10.2c-0.1-1.4-0.2-2.9-0.8-3.9
			c-0.6-1.2-1.6-1.9-3.4-1.9c-1.9,0-2.8,0.9-3.4,2c-1.2,2.4-1.4,8.7-1.4,14.9c0,6.2,0.1,12.5,1.4,14.9c0.6,1.1,1.5,2,3.4,2
			c1.9,0,2.9-0.8,3.5-2c0.6-1.1,0.7-2.5,0.8-3.9h10.2C142.4,48.6,140.6,52.7,138,55.2z"/>
		<path fill="#FFFFFF" d="M172.9,53.8c-2.4,2.8-5.5,5.1-11.2,5.1s-8.7-2.3-11.1-5.1c-4.1-4.9-3.8-14.1-3.8-21s-0.3-16.1,3.8-21
			c2.4-2.8,5.4-5.1,11.1-5.1s8.9,2.3,11.2,5.1c4.1,4.9,3.8,14.1,3.8,21S177,48.9,172.9,53.8z M165.1,17.9c-0.6-1.1-1.6-2-3.5-2
			s-2.8,0.9-3.4,2c-1.2,2.4-1.4,8.7-1.4,14.9c0,6.2,0.1,12.5,1.4,14.9c0.6,1.1,1.5,2,3.4,2s2.9-0.9,3.5-2c1.2-2.4,1.4-8.7,1.4-14.9
			C166.5,26.6,166.4,20.2,165.1,17.9z"/>
		<path fill="#FFFFFF" d="M202.8,58.3l-6.2-19.8h-3.4v19.8H183v-51h14.5c11.1,0,14.2,5.8,14.2,15.5c0,5.4-0.9,10.3-5.8,13.4
			l7.4,22.1H202.8z M197.5,16.4h-4.3v12.8h4.3c3.9,0,4.1-3.5,4.1-6.4C201.6,19.9,201.4,16.4,197.5,16.4z"/>
		<path fill="#FFFFFF" d="M219.1,58.3v-51h10.2v51H219.1z"/>
		<path fill="#FFFFFF" d="M262.8,53.3c-2.3,2.6-5.4,4.9-11.2,4.9h-14.4v-51h14.4c5.7,0,8.9,2.3,11.2,4.9c4.1,4.7,3.8,13.9,3.8,20.6
			C266.6,39.4,266.8,48.6,262.8,53.3z M255.2,18.7c-0.6-1.3-1.9-2.2-3.8-2.2h-4v32.7h4c1.9,0,3.2-0.9,3.8-2.2
			c1.2-2.4,1.2-8.5,1.2-14.2C256.4,27,256.4,21,255.2,18.7z"/>
		<path fill="#FFFFFF" d="M272.9,58.3v-51h23.5v9.2h-13.3V28h11.5v9.2h-11.5v12h13.3v9.2H272.9z"/>
	</g>
</g>
</svg>
