<?xml version="1.0" encoding="utf-8"?>
<!-- Generator: Adobe Illustrator 18.1.1, SVG Export Plug-In . SVG Version: 6.00 Build 0)  -->
<svg version="1.1" id="Laag_1" xmlns="http://www.w3.org/2000/svg" xmlns:xlink="http://www.w3.org/1999/xlink" x="0px" y="0px"
	 viewBox="0 0 410 33" enable-background="new 0 0 410 33" xml:space="preserve">
<g>
	<path d="M12.8,12.3c0-0.2,0.1-0.3,0.3-0.3h0h4.3c0.2,0,0.3,0.1,0.3,0.3c0,0.2-0.1,0.3-0.3,0.3h-4v3.3h3.5c0.2,0,0.3,0.1,0.3,0.3
		c0,0.2-0.1,0.3-0.3,0.3h-3.5v3.6c0,0.2-0.1,0.3-0.3,0.3c-0.2,0-0.3-0.1-0.3-0.3V12.3z"/>
	<path d="M21.6,14.5c1.5,0,2.8,1.3,2.8,2.9s-1.2,2.9-2.8,2.9c-1.5,0-2.8-1.3-2.8-2.9S20,14.5,21.6,14.5z M21.6,19.8
		c1.2,0,2.2-1.1,2.2-2.4s-1-2.4-2.2-2.4s-2.2,1.1-2.2,2.4S20.4,19.8,21.6,19.8z"/>
	<path d="M26.3,14.8c0-0.2,0.1-0.3,0.3-0.3c0.1,0,0.3,0.1,0.3,0.3v1.3c0,0,0-0.1,0.1-0.1c0.4-0.7,1.2-1.4,2.4-1.4
		c0.2,0,0.3,0.1,0.3,0.3c0,0.2-0.1,0.3-0.3,0.3c-0.8,0-1.3,0.4-1.7,1c-0.4,0.5-0.6,1.1-0.7,1.4c0,0,0,0.1,0,0.1v2.6
		c0,0.2-0.1,0.3-0.3,0.3c-0.2,0-0.3-0.1-0.3-0.3V14.8z"/>
	<path d="M43.6,16.9c0-1-0.8-1.8-1.8-1.8c-1,0-1.8,0.8-1.8,1.8v3.2v0c0,0,0,0,0,0v0c0,0.1-0.1,0.1-0.1,0.2c0,0-0.1,0-0.1,0h0h0
		c0,0,0,0,0,0c0,0,0,0-0.1,0c0,0,0,0,0,0l0,0c0,0,0,0,0,0c0,0,0,0,0,0c0,0,0,0,0,0c0,0,0,0,0,0v0v0v-3.2c0-1-0.8-1.8-1.8-1.8
		c-1,0-1.8,0.8-1.8,1.8v3.2c0,0.1,0,0.2-0.1,0.2c0,0,0,0-0.1,0c0,0,0,0,0,0h0h0c-0.1,0-0.2-0.1-0.2-0.2v-0.1v-3.2v-0.1v-2
		c0-0.2,0.1-0.3,0.3-0.3c0.2,0,0.3,0.1,0.3,0.3v0.6c0.4-0.5,1.1-0.8,1.8-0.8c0.9,0,1.7,0.5,2.1,1.2c0.4-0.7,1.2-1.2,2.1-1.2
		c1.3,0,2.4,1.1,2.4,2.4v3.2c0,0.1-0.1,0.3-0.3,0.3c-0.2,0-0.3-0.1-0.3-0.3V16.9z"/>
	<path d="M49.1,14.5c1.5,0,2.8,1.3,2.8,2.9s-1.2,2.9-2.8,2.9c-1.5,0-2.8-1.3-2.8-2.9S47.6,14.5,49.1,14.5z M49.1,19.8
		c1.2,0,2.2-1.1,2.2-2.4s-1-2.4-2.2-2.4s-2.2,1.1-2.2,2.4S47.9,19.8,49.1,19.8z"/>
	<path d="M53.9,14.8c0-0.2,0.1-0.3,0.3-0.3c0.1,0,0.3,0.1,0.3,0.3v1.3c0,0,0-0.1,0.1-0.1c0.4-0.7,1.2-1.4,2.4-1.4
		c0.2,0,0.3,0.1,0.3,0.3c0,0.2-0.1,0.3-0.3,0.3c-0.8,0-1.3,0.4-1.7,1c-0.4,0.5-0.6,1.1-0.7,1.4c0,0,0,0.1,0,0.1v2.6
		c0,0.2-0.1,0.3-0.3,0.3c-0.2,0-0.3-0.1-0.3-0.3V14.8z"/>
	<path d="M58.1,17.4c0-1.6,1.3-3,2.9-3c1.5,0,2.7,1.2,2.8,2.7v0v0c0,0.2-0.1,0.3-0.3,0.3h-4.8c0.1,1.3,1.1,2.3,2.3,2.3
		c0.8,0,1.5-0.4,1.9-1.1c0.1-0.1,0.3-0.2,0.4-0.1c0.1,0.1,0.2,0.3,0.1,0.4c-0.5,0.8-1.4,1.3-2.4,1.3C59.4,20.4,58.1,19.1,58.1,17.4z
		 M58.7,17h4.4C63,15.9,62,15.1,61,15.1C59.9,15.1,58.9,15.9,58.7,17z"/>
	<path d="M69.5,12.9c0-0.2,0.1-0.3,0.3-0.3c0.2,0,0.3,0.1,0.3,0.3v0.3c0,0.2-0.1,0.3-0.3,0.3c-0.2,0-0.3-0.1-0.3-0.3V12.9z
		 M69.5,14.8c0-0.2,0.1-0.3,0.3-0.3c0.2,0,0.3,0.1,0.3,0.3v5.3c0,0.2-0.1,0.3-0.3,0.3c-0.2,0-0.3-0.1-0.3-0.3V14.8z"/>
	<path d="M77,16.9c0-1-0.8-1.8-1.8-1.8c-1,0-1.8,0.8-1.8,1.8v3.2v0c0,0,0,0.1-0.1,0.1c0,0.1-0.1,0.1-0.2,0.1H73
		c-0.1,0-0.2-0.1-0.2-0.2c0,0,0,0,0,0s0,0,0,0v-0.1v-3.2v-0.1v-2c0-0.2,0.1-0.3,0.3-0.3c0.2,0,0.3,0.1,0.3,0.3v0.6
		c0.4-0.5,1.1-0.9,1.8-0.9c1.3,0,2.4,1.1,2.4,2.4v3.2c0,0.2-0.1,0.3-0.3,0.3c-0.2,0-0.3-0.1-0.3-0.3V16.9z"/>
	<path d="M82.8,12.3c0,0.2-0.1,0.3-0.3,0.3c-0.4,0-0.6,0.1-0.7,0.2c-0.1,0.1-0.2,0.4-0.2,1v0.6h0.8c0.2,0,0.3,0.1,0.3,0.3
		c0,0.2-0.1,0.3-0.3,0.3h-0.8v5.1c0,0.2-0.1,0.3-0.3,0.3c-0.2,0-0.3-0.1-0.3-0.3V15h-0.8c-0.2,0-0.3-0.1-0.3-0.3
		c0-0.2,0.1-0.3,0.3-0.3h0.8v-0.6c0-0.6,0.1-1,0.4-1.4c0.3-0.3,0.7-0.4,1.2-0.4C82.6,12,82.8,12.1,82.8,12.3z"/>
	<path d="M86.9,14.5c1.5,0,2.8,1.3,2.8,2.9s-1.2,2.9-2.8,2.9c-1.5,0-2.8-1.3-2.8-2.9S85.3,14.5,86.9,14.5z M86.9,19.8
		c1.2,0,2.2-1.1,2.2-2.4s-1-2.4-2.2-2.4s-2.2,1.1-2.2,2.4S85.7,19.8,86.9,19.8z"/>
	<path d="M91.6,14.8c0-0.2,0.1-0.3,0.3-0.3c0.1,0,0.3,0.1,0.3,0.3v1.3c0,0,0-0.1,0.1-0.1c0.4-0.7,1.2-1.4,2.4-1.4
		c0.2,0,0.3,0.1,0.3,0.3c0,0.2-0.1,0.3-0.3,0.3c-0.8,0-1.3,0.4-1.7,1c-0.4,0.5-0.6,1.1-0.7,1.4c0,0,0,0.1,0,0.1v2.6
		c0,0.2-0.1,0.3-0.3,0.3c-0.2,0-0.3-0.1-0.3-0.3V14.8z"/>
	<path d="M105.3,16.9c0-1-0.8-1.8-1.8-1.8c-1,0-1.8,0.8-1.8,1.8v3.2v0c0,0,0,0,0,0v0c0,0.1-0.1,0.1-0.1,0.2c0,0-0.1,0-0.1,0h0h0
		c0,0,0,0,0,0c0,0,0,0-0.1,0c0,0,0,0,0,0l0,0c0,0,0,0,0,0c0,0,0,0,0,0c0,0,0,0,0,0c0,0,0,0,0,0v0v0v-3.2c0-1-0.8-1.8-1.8-1.8
		c-1,0-1.8,0.8-1.8,1.8v3.2c0,0.1,0,0.2-0.1,0.2c0,0,0,0-0.1,0c0,0,0,0,0,0h0h0c-0.1,0-0.2-0.1-0.2-0.2v-0.1v-3.2v-0.1v-2
		c0-0.2,0.1-0.3,0.3-0.3c0.2,0,0.3,0.1,0.3,0.3v0.6c0.4-0.5,1.1-0.8,1.8-0.8c0.9,0,1.7,0.5,2.1,1.2c0.4-0.7,1.2-1.2,2.1-1.2
		c1.3,0,2.4,1.1,2.4,2.4v3.2c0,0.1-0.1,0.3-0.3,0.3c-0.2,0-0.3-0.1-0.3-0.3V16.9z"/>
	<path d="M113.2,14.8v5.3c0,0.2-0.1,0.3-0.3,0.3s-0.3-0.1-0.3-0.3v-0.9c-0.5,0.7-1.3,1.2-2.2,1.2c-1.5,0-2.8-1.3-2.8-2.9
		c0-1.6,1.2-2.9,2.8-2.9c0.9,0,1.7,0.5,2.2,1.2v-0.9c0-0.2,0.1-0.3,0.3-0.3S113.2,14.6,113.2,14.8z M112.7,17.4c0-1.3-1-2.4-2.2-2.4
		c-1.2,0-2.2,1.1-2.2,2.4s1,2.4,2.2,2.4C111.7,19.8,112.7,18.8,112.7,17.4z"/>
	<path d="M117.8,14.8c0,0.1-0.1,0.3-0.3,0.3h-0.8v4.3c0,0.3,0.3,0.4,0.4,0.4s0.3,0.2,0.3,0.3c0,0.1-0.2,0.3-0.3,0.3
		c-0.6,0-1-0.4-1-1v-4.3h-0.7c-0.3,0-0.3-0.1-0.3-0.3s0-0.3,0.3-0.3h0.7v-2.2c0-0.1,0.1-0.3,0.3-0.3c0.2,0,0.3,0.1,0.3,0.3v2.2h0.8
		C117.6,14.5,117.8,14.6,117.8,14.8z"/>
	<path d="M120.6,12.9c0-0.2,0.1-0.3,0.3-0.3c0.2,0,0.3,0.1,0.3,0.3v0.3c0,0.2-0.1,0.3-0.3,0.3c-0.2,0-0.3-0.1-0.3-0.3V12.9z
		 M120.6,14.8c0-0.2,0.1-0.3,0.3-0.3c0.2,0,0.3,0.1,0.3,0.3v5.3c0,0.2-0.1,0.3-0.3,0.3c-0.2,0-0.3-0.1-0.3-0.3V14.8z"/>
	<path d="M126.4,14.5c1.5,0,2.8,1.3,2.8,2.9s-1.2,2.9-2.8,2.9c-1.5,0-2.8-1.3-2.8-2.9S124.9,14.5,126.4,14.5z M126.4,19.8
		c1.2,0,2.2-1.1,2.2-2.4s-1-2.4-2.2-2.4s-2.2,1.1-2.2,2.4S125.2,19.8,126.4,19.8z"/>
	<path d="M135.6,16.9c0-1-0.8-1.8-1.8-1.8c-1,0-1.8,0.8-1.8,1.8v3.2v0c0,0,0,0.1-0.1,0.1c0,0.1-0.1,0.1-0.2,0.1h-0.1
		c-0.1,0-0.2-0.1-0.2-0.2c0,0,0,0,0,0s0,0,0,0v-0.1v-3.2v-0.1v-2c0-0.2,0.1-0.3,0.3-0.3c0.2,0,0.3,0.1,0.3,0.3v0.6
		c0.4-0.5,1.1-0.9,1.8-0.9c1.3,0,2.4,1.1,2.4,2.4v3.2c0,0.2-0.1,0.3-0.3,0.3c-0.2,0-0.3-0.1-0.3-0.3V16.9z"/>
	<path d="M138.4,21.3c0.4-0.2,0.6-0.5,0.6-0.9c-0.2,0-0.3-0.2-0.3-0.4v-0.3c0-0.2,0.2-0.4,0.4-0.4c0.2,0,0.4,0.2,0.4,0.4V20
		c0,0.7-0.1,1-0.3,1.2s-0.5,0.4-0.6,0.4c-0.1,0-0.2-0.1-0.2-0.2C138.3,21.4,138.3,21.3,138.4,21.3z"/>
	<path d="M144.7,17.4c0-1.6,1.3-2.9,3-2.9c0.7,0,1.4,0.2,1.9,0.6c0.1,0.1,0.1,0.3,0,0.4c-0.1,0.1-0.3,0.1-0.4,0
		c-0.4-0.3-0.9-0.5-1.5-0.5c-1.4,0-2.4,1.1-2.4,2.4c0,1.3,1.1,2.4,2.4,2.4c0.6,0,1.1-0.2,1.5-0.5c0.1-0.1,0.3-0.1,0.4,0
		c0.1,0.1,0.1,0.3-0.1,0.4c-0.5,0.4-1.2,0.6-1.8,0.6C146,20.4,144.7,19.1,144.7,17.4z"/>
	<path d="M154.3,14.5c1.5,0,2.8,1.3,2.8,2.9s-1.2,2.9-2.8,2.9c-1.5,0-2.8-1.3-2.8-2.9S152.8,14.5,154.3,14.5z M154.3,19.8
		c1.2,0,2.2-1.1,2.2-2.4s-1-2.4-2.2-2.4s-2.2,1.1-2.2,2.4S153.1,19.8,154.3,19.8z"/>
	<path d="M163.5,16.9c0-1-0.8-1.8-1.8-1.8c-1,0-1.8,0.8-1.8,1.8v3.2v0c0,0,0,0.1-0.1,0.1c0,0.1-0.1,0.1-0.2,0.1h-0.1
		c-0.1,0-0.2-0.1-0.2-0.2c0,0,0,0,0,0s0,0,0,0v-0.1v-3.2v-0.1v-2c0-0.2,0.1-0.3,0.3-0.3c0.2,0,0.3,0.1,0.3,0.3v0.6
		c0.4-0.5,1.1-0.9,1.8-0.9c1.3,0,2.4,1.1,2.4,2.4v3.2c0,0.2-0.1,0.3-0.3,0.3c-0.2,0-0.3-0.1-0.3-0.3V16.9z"/>
	<path d="M168.7,14.8c0,0.1-0.1,0.3-0.3,0.3h-0.8v4.3c0,0.3,0.3,0.4,0.4,0.4s0.3,0.2,0.3,0.3c0,0.1-0.2,0.3-0.3,0.3
		c-0.6,0-1-0.4-1-1v-4.3h-0.7c-0.3,0-0.3-0.1-0.3-0.3s0-0.3,0.3-0.3h0.7v-2.2c0-0.1,0.1-0.3,0.3-0.3c0.2,0,0.3,0.1,0.3,0.3v2.2h0.8
		C168.6,14.5,168.7,14.6,168.7,14.8z"/>
	<path d="M176,14.8v5.3c0,0.2-0.1,0.3-0.3,0.3s-0.3-0.1-0.3-0.3v-0.9c-0.5,0.7-1.3,1.2-2.2,1.2c-1.5,0-2.8-1.3-2.8-2.9
		c0-1.6,1.2-2.9,2.8-2.9c0.9,0,1.7,0.5,2.2,1.2v-0.9c0-0.2,0.1-0.3,0.3-0.3S176,14.6,176,14.8z M175.4,17.4c0-1.3-1-2.4-2.2-2.4
		c-1.2,0-2.2,1.1-2.2,2.4s1,2.4,2.2,2.4C174.5,19.8,175.4,18.8,175.4,17.4z"/>
	<path d="M178.1,17.4c0-1.6,1.3-2.9,3-2.9c0.7,0,1.4,0.2,1.9,0.6c0.1,0.1,0.1,0.3,0,0.4c-0.1,0.1-0.3,0.1-0.4,0
		c-0.4-0.3-0.9-0.5-1.5-0.5c-1.4,0-2.4,1.1-2.4,2.4c0,1.3,1.1,2.4,2.4,2.4c0.6,0,1.1-0.2,1.5-0.5c0.1-0.1,0.3-0.1,0.4,0
		c0.1,0.1,0.1,0.3-0.1,0.4c-0.5,0.4-1.2,0.6-1.8,0.6C179.4,20.4,178.1,19.1,178.1,17.4z"/>
	<path d="M187.4,14.8c0,0.1-0.1,0.3-0.3,0.3h-0.8v4.3c0,0.3,0.3,0.4,0.4,0.4s0.3,0.2,0.3,0.3c0,0.1-0.2,0.3-0.3,0.3
		c-0.6,0-1-0.4-1-1v-4.3H185c-0.3,0-0.3-0.1-0.3-0.3s0-0.3,0.3-0.3h0.7v-2.2c0-0.1,0.1-0.3,0.3-0.3c0.2,0,0.3,0.1,0.3,0.3v2.2h0.8
		C187.3,14.5,187.4,14.6,187.4,14.8z"/>
	<path d="M193.4,17.4c0-1.6,1.3-2.9,3-2.9c0.7,0,1.4,0.2,1.9,0.6c0.1,0.1,0.1,0.3,0,0.4c-0.1,0.1-0.3,0.1-0.4,0
		c-0.4-0.3-0.9-0.5-1.5-0.5c-1.4,0-2.4,1.1-2.4,2.4c0,1.3,1.1,2.4,2.4,2.4c0.6,0,1.1-0.2,1.5-0.5c0.1-0.1,0.3-0.1,0.4,0
		c0.1,0.1,0.1,0.3-0.1,0.4c-0.5,0.4-1.2,0.6-1.8,0.6C194.7,20.4,193.4,19.1,193.4,17.4z"/>
	<path d="M204.9,16.8c0-1-0.8-1.7-1.9-1.7c-1,0-1.9,0.7-1.9,1.7v3.3v0c0,0,0,0,0,0c0,0,0,0,0,0c0,0.1-0.1,0.1-0.2,0.1c0,0,0,0,0,0h0
		h0c-0.1,0-0.2,0-0.2-0.1c0,0,0-0.1,0-0.1c0,0,0-0.1,0-0.1v-3.3v-0.1v-4.4c0-0.2,0.1-0.3,0.3-0.3c0.2,0,0.3,0.1,0.3,0.3v3.1
		c0.4-0.5,1.1-0.9,1.9-0.9c1.4,0,2.5,1,2.5,2.3v3.3c0,0.2-0.1,0.3-0.3,0.3c-0.2,0-0.3-0.1-0.3-0.3V16.8z"/>
	<path d="M208,14.8c0-0.2,0.1-0.3,0.3-0.3c0.1,0,0.3,0.1,0.3,0.3v1.3c0,0,0-0.1,0.1-0.1c0.4-0.7,1.2-1.4,2.4-1.4
		c0.2,0,0.3,0.1,0.3,0.3c0,0.2-0.1,0.3-0.3,0.3c-0.8,0-1.3,0.4-1.7,1c-0.4,0.5-0.6,1.1-0.7,1.4c0,0,0,0.1,0,0.1v2.6
		c0,0.2-0.1,0.3-0.3,0.3c-0.2,0-0.3-0.1-0.3-0.3V14.8z"/>
	<path d="M213.3,12.9c0-0.2,0.1-0.3,0.3-0.3c0.2,0,0.3,0.1,0.3,0.3v0.3c0,0.2-0.1,0.3-0.3,0.3c-0.2,0-0.3-0.1-0.3-0.3V12.9z
		 M213.3,14.8c0-0.2,0.1-0.3,0.3-0.3c0.2,0,0.3,0.1,0.3,0.3v5.3c0,0.2-0.1,0.3-0.3,0.3c-0.2,0-0.3-0.1-0.3-0.3V14.8z"/>
	<path d="M216.2,19.1c0.1-0.1,0.3-0.1,0.4,0c0.4,0.3,1.1,0.7,1.8,0.7c0.5,0,0.9-0.1,1.1-0.4c0.3-0.2,0.4-0.5,0.4-0.7
		c0-0.3-0.1-0.5-0.4-0.7c-0.3-0.2-0.7-0.3-1.2-0.4l0,0c-0.5-0.1-1-0.2-1.3-0.5c-0.4-0.2-0.6-0.6-0.6-1.1c0-0.5,0.3-0.9,0.6-1.2
		c0.3-0.2,0.8-0.4,1.4-0.4c0.8,0,1.3,0.3,1.8,0.6c0.1,0.1,0.2,0.3,0.1,0.4s-0.3,0.2-0.4,0.1c-0.4-0.3-0.9-0.6-1.4-0.6
		c-0.5,0-0.9,0.1-1.1,0.3c-0.2,0.2-0.4,0.4-0.4,0.7s0.1,0.4,0.3,0.6c0.3,0.2,0.7,0.3,1.2,0.4h0c0.6,0.1,1,0.3,1.4,0.5
		c0.4,0.3,0.7,0.7,0.7,1.2s-0.3,0.9-0.7,1.2c-0.4,0.3-0.9,0.5-1.5,0.5c-0.9,0-1.7-0.5-2.2-0.8C216.1,19.4,216.1,19.3,216.2,19.1z"/>
	<path d="M224.8,14.8c0,0.1-0.1,0.3-0.3,0.3h-0.8v4.3c0,0.3,0.3,0.4,0.4,0.4s0.3,0.2,0.3,0.3c0,0.1-0.2,0.3-0.3,0.3
		c-0.6,0-1-0.4-1-1v-4.3h-0.7c-0.3,0-0.3-0.1-0.3-0.3s0-0.3,0.3-0.3h0.7v-2.2c0-0.1,0.1-0.3,0.3-0.3c0.2,0,0.3,0.1,0.3,0.3v2.2h0.8
		C224.6,14.5,224.8,14.6,224.8,14.8z"/>
	<path d="M226.6,17.4c0-1.6,1.3-3,2.9-3c1.5,0,2.7,1.2,2.8,2.7v0v0c0,0.2-0.1,0.3-0.3,0.3h-4.8c0.1,1.3,1.1,2.3,2.3,2.3
		c0.8,0,1.5-0.4,1.9-1.1c0.1-0.1,0.3-0.2,0.4-0.1c0.1,0.1,0.2,0.3,0.1,0.4c-0.5,0.8-1.4,1.3-2.4,1.3
		C227.9,20.4,226.6,19.1,226.6,17.4z M227.2,17h4.4c-0.2-1.1-1.1-1.9-2.2-1.9C228.4,15.1,227.4,15.9,227.2,17z"/>
	<path d="M234.4,12.3c0-0.2,0.1-0.3,0.3-0.3c0.2,0,0.3,0.1,0.3,0.3v7.8c0,0.2-0.1,0.3-0.3,0.3c-0.2,0-0.3-0.1-0.3-0.3V12.3z"/>
	<path d="M237.8,19.2c0.3,0,0.6,0.3,0.6,0.6s-0.3,0.6-0.6,0.6c-0.3,0-0.6-0.3-0.6-0.6S237.5,19.2,237.8,19.2z"/>
	<path d="M244.7,19.2c-0.5,0.7-1.3,1.1-2.3,1.1c-1.6,0-2.8-1.3-2.8-2.9c0-1.6,1.3-3,2.8-3c0.9,0,1.7,0.5,2.3,1.2v-3.4
		c0-0.2,0.1-0.3,0.3-0.3c0.2,0,0.3,0.1,0.3,0.3v5.1v0.1v2.6c0,0.2-0.1,0.3-0.3,0.3c-0.2,0-0.3-0.1-0.3-0.3V19.2z M244.7,17.5v-0.2
		c0-1.3-1-2.3-2.3-2.3c-1.2,0-2.3,1.1-2.3,2.4c0,1.3,1,2.3,2.3,2.3C243.6,19.8,244.6,18.8,244.7,17.5z"/>
	<path d="M247.3,17.4c0-1.6,1.3-3,2.9-3c1.5,0,2.7,1.2,2.8,2.7v0v0c0,0.2-0.1,0.3-0.3,0.3h-4.8c0.1,1.3,1.1,2.3,2.3,2.3
		c0.8,0,1.5-0.4,1.9-1.1c0.1-0.1,0.3-0.2,0.4-0.1c0.1,0.1,0.2,0.3,0.1,0.4c-0.5,0.8-1.4,1.3-2.4,1.3
		C248.6,20.4,247.3,19.1,247.3,17.4z M247.9,17h4.4c-0.2-1.1-1.1-1.9-2.2-1.9C249,15.1,248.1,15.9,247.9,17z"/>
	<path d="M263.4,16.9c0-1-0.8-1.8-1.8-1.8c-1,0-1.8,0.8-1.8,1.8v3.2v0c0,0,0,0,0,0v0c0,0.1-0.1,0.1-0.1,0.2c0,0-0.1,0-0.1,0h0h0
		c0,0,0,0,0,0c0,0,0,0-0.1,0c0,0,0,0,0,0l0,0c0,0,0,0,0,0c0,0,0,0,0,0c0,0,0,0,0,0c0,0,0,0,0,0v0v0v-3.2c0-1-0.8-1.8-1.8-1.8
		c-1,0-1.8,0.8-1.8,1.8v3.2c0,0.1,0,0.2-0.1,0.2c0,0,0,0-0.1,0c0,0,0,0,0,0h0h0c-0.1,0-0.2-0.1-0.2-0.2v-0.1v-3.2v-0.1v-2
		c0-0.2,0.1-0.3,0.3-0.3c0.2,0,0.3,0.1,0.3,0.3v0.6c0.4-0.5,1.1-0.8,1.8-0.8c0.9,0,1.7,0.5,2.1,1.2c0.4-0.7,1.2-1.2,2.1-1.2
		c1.3,0,2.4,1.1,2.4,2.4v3.2c0,0.1-0.1,0.3-0.3,0.3c-0.2,0-0.3-0.1-0.3-0.3V16.9z"/>
	<path d="M271.3,14.8v5.3c0,0.2-0.1,0.3-0.3,0.3s-0.3-0.1-0.3-0.3v-0.9c-0.5,0.7-1.3,1.2-2.2,1.2c-1.5,0-2.8-1.3-2.8-2.9
		c0-1.6,1.2-2.9,2.8-2.9c0.9,0,1.7,0.5,2.2,1.2v-0.9c0-0.2,0.1-0.3,0.3-0.3S271.3,14.6,271.3,14.8z M270.8,17.4c0-1.3-1-2.4-2.2-2.4
		c-1.2,0-2.2,1.1-2.2,2.4s1,2.4,2.2,2.4C269.8,19.8,270.8,18.8,270.8,17.4z"/>
	<path d="M273.4,17.4c0-1.6,1.3-3,2.9-3c1.5,0,2.7,1.2,2.8,2.7v0v0c0,0.2-0.1,0.3-0.3,0.3H274c0.1,1.3,1.1,2.3,2.3,2.3
		c0.8,0,1.5-0.4,1.9-1.1c0.1-0.1,0.3-0.2,0.4-0.1c0.1,0.1,0.2,0.3,0.1,0.4c-0.5,0.8-1.4,1.3-2.4,1.3
		C274.7,20.4,273.4,19.1,273.4,17.4z M274,17h4.4c-0.2-1.1-1.1-1.9-2.2-1.9C275.2,15.1,274.3,15.9,274,17z"/>
	<path d="M281,14.8c0-0.2,0.1-0.3,0.3-0.3c0.2,0,0.3,0.1,0.3,0.3V18c0,1,0.8,1.8,1.8,1.8c1,0,1.8-0.8,1.8-1.8v-3.2c0,0,0-0.1,0-0.1
		c0,0,0,0,0,0c0,0,0,0,0,0c0,0,0.1-0.1,0.1-0.1h0c0,0,0,0,0,0h0h0c0,0,0.1,0,0.1,0.1c0,0,0.1,0.1,0.1,0.1c0,0,0,0.1,0,0.1V18v0.1
		v1.8c0,1.5-1.2,2.8-2.8,2.8c-0.4,0-0.8-0.1-1.2-0.3c-0.1-0.1-0.2-0.3-0.1-0.4c0.1-0.1,0.2-0.2,0.4-0.1c0.3,0.1,0.6,0.2,1,0.2
		c1.2,0,2.2-1,2.2-2.2v-0.4c-0.4,0.5-1.1,0.8-1.8,0.8c-1.3,0-2.4-1.1-2.4-2.4V14.8z"/>
	<path d="M287.8,17.4c0-1.6,1.3-3,2.9-3c1.5,0,2.7,1.2,2.8,2.7v0v0c0,0.2-0.1,0.3-0.3,0.3h-4.8c0.1,1.3,1.1,2.3,2.3,2.3
		c0.8,0,1.5-0.4,1.9-1.1c0.1-0.1,0.3-0.2,0.4-0.1c0.1,0.1,0.2,0.3,0.1,0.4c-0.5,0.8-1.4,1.3-2.4,1.3
		C289.1,20.4,287.8,19.1,287.8,17.4z M288.4,17h4.4c-0.2-1.1-1.1-1.9-2.2-1.9C289.6,15.1,288.6,15.9,288.4,17z"/>
	<path d="M295.3,14.8c0-0.2,0.1-0.3,0.3-0.3c0.1,0,0.3,0.1,0.3,0.3v1.3c0,0,0-0.1,0.1-0.1c0.4-0.7,1.2-1.4,2.4-1.4
		c0.2,0,0.3,0.1,0.3,0.3c0,0.2-0.1,0.3-0.3,0.3c-0.8,0-1.3,0.4-1.7,1c-0.4,0.5-0.6,1.1-0.7,1.4c0,0,0,0.1,0,0.1v2.6
		c0,0.2-0.1,0.3-0.3,0.3c-0.2,0-0.3-0.1-0.3-0.3V14.8z"/>
	<path d="M304.3,12c2.3,0,4.2,1.9,4.2,4.2c0,0.7-0.2,1.4-0.4,1.9c0,0-0.4,0.7-1.1,0.9c-0.1,0-0.2,0-0.2,0c-0.3,0-0.6-0.1-0.7-0.3
		c-0.1-0.2-0.2-0.4-0.2-0.6v-0.4c-0.4,0.4-0.9,0.7-1.5,0.7c-1.2,0-2.1-1-2.1-2.3c0-1.2,1-2.2,2.1-2.2c1.2,0,2.1,1,2.1,2.2v0.1v0.1
		v1.8h0c0,0.1,0,0.2,0.1,0.3c0,0,0.1,0.1,0.2,0.1h0.1c0.4-0.1,0.6-0.5,0.7-0.6c0.3-0.5,0.4-1,0.4-1.6c0-2-1.6-3.6-3.6-3.6
		c-2,0-3.6,1.6-3.6,3.6c0,2,1.6,3.6,3.6,3.6c0.3,0,0.6,0,0.9-0.1c0.2,0,0.3,0,0.3,0.2c0.1,0.2,0,0.3-0.2,0.3c-0.3,0.1-0.7,0.1-1,0.1
		c-2.3,0-4.2-1.9-4.2-4.2C300.1,13.8,301.9,12,304.3,12z M304.3,17.8c0.8,0,1.5-0.7,1.5-1.6c0-0.9-0.7-1.7-1.5-1.7
		c-0.8,0-1.5,0.7-1.5,1.7C302.8,17.1,303.4,17.8,304.3,17.8z"/>
	<path d="M317.2,14.8v5.3c0,0.2-0.1,0.3-0.3,0.3s-0.3-0.1-0.3-0.3v-0.9c-0.5,0.7-1.3,1.2-2.2,1.2c-1.5,0-2.8-1.3-2.8-2.9
		c0-1.6,1.2-2.9,2.8-2.9c0.9,0,1.7,0.5,2.2,1.2v-0.9c0-0.2,0.1-0.3,0.3-0.3S317.2,14.6,317.2,14.8z M316.7,17.4c0-1.3-1-2.4-2.2-2.4
		c-1.2,0-2.2,1.1-2.2,2.4s1,2.4,2.2,2.4C315.7,19.8,316.7,18.8,316.7,17.4z"/>
	<path d="M319.7,14.8c0-0.2,0.1-0.3,0.3-0.3c0.1,0,0.3,0.1,0.3,0.3v1.3c0,0,0-0.1,0.1-0.1c0.4-0.7,1.2-1.4,2.4-1.4
		c0.2,0,0.3,0.1,0.3,0.3c0,0.2-0.1,0.3-0.3,0.3c-0.8,0-1.3,0.4-1.7,1c-0.4,0.5-0.6,1.1-0.7,1.4c0,0,0,0.1,0,0.1v2.6
		c0,0.2-0.1,0.3-0.3,0.3c-0.2,0-0.3-0.1-0.3-0.3V14.8z"/>
	<path d="M327.1,14.8c0,0.1-0.1,0.3-0.3,0.3H326v4.3c0,0.3,0.3,0.4,0.4,0.4s0.3,0.2,0.3,0.3c0,0.1-0.2,0.3-0.3,0.3c-0.6,0-1-0.4-1-1
		v-4.3h-0.7c-0.3,0-0.3-0.1-0.3-0.3s0-0.3,0.3-0.3h0.7v-2.2c0-0.1,0.1-0.3,0.3-0.3c0.2,0,0.3,0.1,0.3,0.3v2.2h0.8
		C326.9,14.5,327.1,14.6,327.1,14.8z"/>
	<path d="M328.9,17.4c0-1.6,1.3-3,2.9-3c1.5,0,2.7,1.2,2.8,2.7v0v0c0,0.2-0.1,0.3-0.3,0.3h-4.8c0.1,1.3,1.1,2.3,2.3,2.3
		c0.8,0,1.5-0.4,1.9-1.1c0.1-0.1,0.3-0.2,0.4-0.1c0.1,0.1,0.2,0.3,0.1,0.4c-0.5,0.8-1.4,1.3-2.4,1.3
		C330.2,20.4,328.9,19.1,328.9,17.4z M329.5,17h4.4c-0.2-1.1-1.1-1.9-2.2-1.9C330.7,15.1,329.7,15.9,329.5,17z"/>
	<path d="M338.2,20.3c0,0-0.1-0.1-0.1-0.1l-2.2-5.3c-0.1-0.1,0-0.3,0.1-0.4c0.1-0.1,0.3,0,0.4,0.2l2,4.6l2-4.6
		c0-0.1,0.2-0.2,0.4-0.2c0.1,0.1,0.2,0.2,0.1,0.4l-2.2,5.2c0,0,0,0.1-0.1,0.1c0,0.1-0.1,0.1-0.2,0.1
		C338.4,20.4,338.3,20.4,338.2,20.3C338.3,20.4,338.3,20.4,338.2,20.3C338.3,20.3,338.2,20.3,338.2,20.3z"/>
	<path d="M342.5,17.4c0-1.6,1.3-3,2.9-3c1.5,0,2.7,1.2,2.8,2.7v0v0c0,0.2-0.1,0.3-0.3,0.3h-4.8c0.1,1.3,1.1,2.3,2.3,2.3
		c0.8,0,1.5-0.4,1.9-1.1c0.1-0.1,0.3-0.2,0.4-0.1c0.1,0.1,0.2,0.3,0.1,0.4c-0.5,0.8-1.4,1.3-2.4,1.3
		C343.8,20.4,342.5,19.1,342.5,17.4z M343.1,17h4.4c-0.2-1.1-1.1-1.9-2.2-1.9C344.3,15.1,343.4,15.9,343.1,17z"/>
	<path d="M350.3,12.3c0-0.2,0.1-0.3,0.3-0.3c0.2,0,0.3,0.1,0.3,0.3v7.8c0,0.2-0.1,0.3-0.3,0.3c-0.2,0-0.3-0.1-0.3-0.3V12.3z"/>
	<path d="M358,19.2c-0.5,0.7-1.3,1.1-2.3,1.1c-1.6,0-2.8-1.3-2.8-2.9c0-1.6,1.3-3,2.8-3c0.9,0,1.7,0.5,2.3,1.2v-3.4
		c0-0.2,0.1-0.3,0.3-0.3c0.2,0,0.3,0.1,0.3,0.3v5.1v0.1v2.6c0,0.2-0.1,0.3-0.3,0.3c-0.2,0-0.3-0.1-0.3-0.3V19.2z M358,17.5v-0.2
		c0-1.3-1-2.3-2.3-2.3c-1.2,0-2.3,1.1-2.3,2.4c0,1.3,1,2.3,2.3,2.3C356.9,19.8,357.9,18.8,358,17.5z"/>
	<path d="M360.6,17.4c0-1.6,1.3-3,2.9-3c1.5,0,2.7,1.2,2.8,2.7v0v0c0,0.2-0.1,0.3-0.3,0.3h-4.8c0.1,1.3,1.1,2.3,2.3,2.3
		c0.8,0,1.5-0.4,1.9-1.1c0.1-0.1,0.3-0.2,0.4-0.1c0.1,0.1,0.2,0.3,0.1,0.4c-0.5,0.8-1.4,1.3-2.4,1.3
		C361.8,20.4,360.6,19.1,360.6,17.4z M361.2,17h4.4c-0.2-1.1-1.1-1.9-2.2-1.9C362.3,15.1,361.4,15.9,361.2,17z"/>
	<path d="M372.6,16.8c0-1-0.8-1.7-1.9-1.7c-1,0-1.9,0.7-1.9,1.7v3.3v0c0,0,0,0,0,0c0,0,0,0,0,0c0,0.1-0.1,0.1-0.2,0.1c0,0,0,0,0,0h0
		h0c-0.1,0-0.2,0-0.2-0.1c0,0,0-0.1,0-0.1c0,0,0-0.1,0-0.1v-3.3v-0.1v-4.4c0-0.2,0.1-0.3,0.3-0.3c0.2,0,0.3,0.1,0.3,0.3v3.1
		c0.4-0.5,1.1-0.9,1.9-0.9c1.4,0,2.5,1,2.5,2.3v3.3c0,0.2-0.1,0.3-0.3,0.3c-0.2,0-0.3-0.1-0.3-0.3V16.8z"/>
	<path d="M375.2,19.1c0.1-0.1,0.3-0.1,0.4,0c0.4,0.3,1.1,0.7,1.8,0.7c0.5,0,0.9-0.1,1.1-0.4c0.3-0.2,0.4-0.5,0.4-0.7
		c0-0.3-0.1-0.5-0.4-0.7c-0.3-0.2-0.7-0.3-1.2-0.4l0,0c-0.5-0.1-1-0.2-1.3-0.5c-0.4-0.2-0.6-0.6-0.6-1.1c0-0.5,0.3-0.9,0.6-1.2
		c0.3-0.2,0.8-0.4,1.4-0.4c0.8,0,1.3,0.3,1.8,0.6c0.1,0.1,0.2,0.3,0.1,0.4s-0.3,0.2-0.4,0.1c-0.4-0.3-0.9-0.6-1.4-0.6
		c-0.5,0-0.9,0.1-1.1,0.3c-0.2,0.2-0.4,0.4-0.4,0.7s0.1,0.4,0.3,0.6c0.3,0.2,0.7,0.3,1.2,0.4h0c0.6,0.1,1,0.3,1.4,0.5
		c0.4,0.3,0.7,0.7,0.7,1.2s-0.3,0.9-0.7,1.2c-0.4,0.3-0.9,0.5-1.5,0.5c-0.9,0-1.7-0.5-2.2-0.8C375.2,19.4,375.2,19.3,375.2,19.1z"/>
	<path d="M382,19.2c0.3,0,0.6,0.3,0.6,0.6s-0.3,0.6-0.6,0.6s-0.6-0.3-0.6-0.6S381.7,19.2,382,19.2z"/>
	<path d="M384.3,17.6v-0.1v-0.1v-5.1c0-0.2,0.1-0.3,0.3-0.3c0.2,0,0.3,0.1,0.3,0.3v3.4c0.5-0.7,1.3-1.2,2.3-1.2c1.6,0,2.8,1.3,2.8,3
		c0,1.6-1.3,2.9-2.8,2.9c-0.9,0-1.7-0.4-2.3-1.1v0.9c0,0.2-0.1,0.3-0.3,0.3c-0.2,0-0.3-0.1-0.3-0.3V17.6z M384.9,17.4
		c0,1.3,1,2.3,2.3,2.3c1.2,0,2.3-1,2.3-2.3c0-1.3-1-2.4-2.3-2.4C386,15.1,385,16.1,384.9,17.4L384.9,17.4z"/>
	<path d="M391.8,17.4c0-1.6,1.3-3,2.9-3c1.5,0,2.7,1.2,2.8,2.7v0v0c0,0.2-0.1,0.3-0.3,0.3h-4.8c0.1,1.3,1.1,2.3,2.3,2.3
		c0.8,0,1.5-0.4,1.9-1.1c0.1-0.1,0.3-0.2,0.4-0.1c0.1,0.1,0.2,0.3,0.1,0.4c-0.5,0.8-1.4,1.3-2.4,1.3
		C393.1,20.4,391.8,19.1,391.8,17.4z M392.4,17h4.4c-0.2-1.1-1.1-1.9-2.2-1.9C393.6,15.1,392.6,15.9,392.4,17z"/>
</g>
</svg>
