<?xml version="1.0" encoding="utf-8"?>
<!-- Generator: Adobe Illustrator 18.1.1, SVG Export Plug-In . SVG Version: 6.00 Build 0)  -->
<svg version="1.1" id="Laag_1" xmlns="http://www.w3.org/2000/svg" xmlns:xlink="http://www.w3.org/1999/xlink" x="0px" y="0px"
	 viewBox="0 0 960 560" enable-background="new 0 0 960 560" xml:space="preserve">
<g>
	<polygon fill="#B0D235" points="563.1,306.4 646.6,306.4 646.6,222.9 563.5,222.9 	"/>
	<rect x="563.1" y="55.8" fill="#B0D235" width="83.5" height="83.5"/>
	<path fill="#F8AF00" d="M353.3,53.8c-69.8,0-126.3,56.5-126.3,126.3c0,69.8,56.6,126.3,126.3,126.3h126.3V180.1
		C479.6,110.3,423.1,53.8,353.3,53.8z M395.4,222.2h-42.1c0,0,0,0,0,0c-23.3,0-42.1-18.9-42.1-42.1c0-23.3,18.8-42.1,42.1-42.1
		c23.2,0,42.1,18.8,42.1,42.1V222.2z"/>
	<g>
		<path fill="#00B4CD" d="M61.8,442.9H51.2c-1,0-1.9-0.9-1.9-1.9v-1.5c-3.7,2.7-7.5,4.3-13.2,4.3c-8.3,0-16.2-4-16.2-16.4v-0.8
			c0-11.1,7.1-16.1,23.4-16.1h5.1v-3.4c0-5.4-2.7-6.6-7.1-6.6c-6.1,0-12.8,0.4-15.8,0.7h-0.5c-0.9,0-1.7-0.5-1.7-1.7v-7.7
			c0-1,0.7-1.8,1.8-2.1c3.5-0.9,10.2-2,16.4-2c13.7,0,22.2,5.5,22.2,19.4V441C63.7,442.1,62.9,442.9,61.8,442.9z M48.6,419.7h-5.4
			c-6.7,0-8.4,2.3-8.4,6.9v0.8c0,4,2,4.8,6,4.8c2.8,0,5.5-1,7.8-2.1V419.7z"/>
		<path fill="#00B4CD" d="M105.5,400.5h-0.8c-4.6,0-8.7,1.4-12.2,3.3v37.2c0,1.1-0.9,2-1.9,2H79c-1.1,0-2-0.9-2-2v-50.6
			c0-1.1,0.9-1.9,1.9-1.9h11.3c1,0,1.9,0.8,1.9,1.9v1.9c3.5-2.9,8.3-4.6,12.9-4.6c1,0,1.9,0.9,1.9,1.9v9
			C106.9,399.5,106.3,400.5,105.5,400.5z"/>
		<path fill="#00B4CD" d="M147.5,443c-2.8,0.5-4.7,0.8-7.5,0.8c-10.5,0-16-2.8-16-16.3V400l-7.6-1.2c-1-0.2-2-0.9-2-2v-6.3
			c0-1.1,1-2,2-2h7.6v-7.8c0-1.1,0.8-1.7,1.9-1.9l11.6-2c0.1,0,0.2,0,0.3,0c0.9,0,1.7,0.7,1.7,1.6v10.1h7.8c1,0,1.9,0.8,1.9,1.9v7.7
			c0,1-0.8,1.9-1.9,1.9h-7.8v27.7c0,3.8,0.3,4.5,3.1,4.5h4.7c1.2,0,2,0.6,2,1.6v7.4C149.3,442.1,148.7,442.8,147.5,443z"/>
		<path fill="#00B4CD" d="M204,420.5h-30.3v0.2c0,5.4,2.3,10.4,9.8,10.4c6,0,14.5-0.5,18.3-0.8c0.1,0,0.2,0,0.3,0
			c1.1,0,1.8,0.5,1.8,1.5v7.2c0,1.5-0.4,2.2-2,2.6c-6.1,1.5-11.2,2.3-19.5,2.3c-11.5,0-23.9-6.1-23.9-24.4v-6.7
			c0-15.3,8.9-25,24.1-25c15.6,0,23.5,10.6,23.5,25v5.5C206,419.7,205.2,420.5,204,420.5z M191,410.6c0-7-3.2-10.5-8.6-10.5
			c-5.2,0-8.7,3.6-8.7,10.5v0.4H191V410.6z"/>
		<path fill="#00B4CD" d="M264.2,390.7l-12,43.2c-2.4,8.4-8.2,10-13.8,10c-5.6,0-11.3-1.5-13.7-10l-11.9-43.2
			c-0.1-0.2-0.1-0.4-0.1-0.6c0-1,0.7-1.6,1.5-1.6h12.5c1,0,1.7,0.8,2,2l8.2,37.3c0.3,1.4,0.8,2,1.4,2c0.6,0,1.2-0.6,1.5-2l8.2-37.3
			c0.3-1.2,1-2,2-2h12.5c0.8,0,1.6,0.7,1.6,1.6C264.3,390.3,264.3,390.5,264.2,390.7z"/>
		<path fill="#00B4CD" d="M316.5,420.5h-30.3v0.2c0,5.4,2.3,10.4,9.8,10.4c6,0,14.5-0.5,18.3-0.8c0.1,0,0.2,0,0.3,0
			c1,0,1.8,0.5,1.8,1.5v7.2c0,1.5-0.4,2.2-2,2.6c-6.1,1.5-11.2,2.3-19.5,2.3c-11.5,0-23.9-6.1-23.9-24.4v-6.7c0-15.3,8.9-25,24-25
			c15.6,0,23.5,10.6,23.5,25v5.5C318.5,419.7,317.7,420.5,316.5,420.5z M303.5,410.6c0-7-3.2-10.5-8.6-10.5c-5.2,0-8.7,3.6-8.7,10.5
			v0.4h17.3V410.6z"/>
		<path fill="#00B4CD" d="M343.9,442.9h-11.6c-1.1,0-2-0.9-2-2v-69c0-1,0.9-1.9,2-1.9h11.6c1,0,1.8,0.9,1.8,1.9v69
			C345.7,442,344.9,442.9,343.9,442.9z"/>
		<path fill="#00B4CD" d="M401.3,441.3c-5.4,1.3-12.9,2.5-20.2,2.5c-15.4,0-23.9-8.9-23.9-24.3v-7.4c0-14.9,7.8-24.3,23.9-24.3
			c1.9,0,5,0.3,7.8,0.7v-16.4c0-1,0.9-1.9,1.9-1.9h11.5c1,0,2,0.9,2,1.9v66.6C404.3,440.1,403.9,440.8,401.3,441.3z M388.8,400.9
			c-2.3-0.3-5.5-0.5-7.8-0.5c-6.8,0-8.5,4.9-8.5,11.6v7.4c0,6.8,1.7,11.7,8.5,11.7c3.1,0,6-0.3,7.8-0.6V400.9z"/>
		<path fill="#00B4CD" d="M461.7,420.5h-30.3v0.2c0,5.4,2.3,10.4,9.8,10.4c6,0,14.5-0.5,18.3-0.8c0.1,0,0.2,0,0.3,0
			c1,0,1.8,0.5,1.8,1.5v7.2c0,1.5-0.4,2.2-2,2.6c-6.1,1.5-11.2,2.3-19.5,2.3c-11.5,0-23.9-6.1-23.9-24.4v-6.7c0-15.3,8.9-25,24.1-25
			c15.6,0,23.5,10.6,23.5,25v5.5C463.6,419.7,462.9,420.5,461.7,420.5z M448.6,410.6c0-7-3.2-10.5-8.6-10.5c-5.2,0-8.7,3.6-8.7,10.5
			v0.4h17.3V410.6z"/>
	</g>
	<g>
		<path fill="#00B4CD" d="M519,442.9h-4.6c-1,0-1.9-0.9-1.9-1.9v-31.3c0-9.5-4-12.4-10.2-12.4c-3,0-8.9,0.8-13.1,2.7V441
			c0,1-0.8,1.9-1.9,1.9h-4.7c-1,0-1.8-0.9-1.8-1.9v-67.7c0-1,0.8-1.9,1.8-1.9h4.7c1.1,0,1.8,0.8,1.8,1.9v19.6
			c4.6-2,10.5-2.9,14.6-2.9c10.1,0,17.1,5.8,17.1,19.8V441C520.9,442.1,520,442.9,519,442.9z"/>
		<path fill="#00B4CD" d="M553,443.6c-14,0-21.1-9.2-21.1-23.2v-7.2c0-14,7.1-23.2,21.1-23.2c14,0,21.2,9.2,21.2,23.2v7.2
			C574.2,434.4,566.9,443.6,553,443.6z M565.8,413.2c0-9.7-3.9-15.9-12.8-15.9c-8.8,0-12.7,6.1-12.7,15.9v7.2
			c0,9.7,3.8,15.9,12.7,15.9c8.8,0,12.8-6.1,12.8-15.9V413.2z"/>
		<path fill="#00B4CD" d="M627.1,397l-3.4,0.7c1.7,1.8,3.2,4.7,3.2,9.8v0.8c0,10.5-6.5,16.3-21.1,16.3c-5,0-8.3-0.8-11-1.9
			c-1.6,0.8-2.4,1.8-2.4,3.2c0,1.6,0.8,2.5,2.9,3l14.2,3.6c9.3,2.4,18.3,5,18.3,14v0.8c0,9.1-6.1,14.7-21.7,14.7
			c-15,0-21.9-5.8-21.9-15.1V446c0-5.3,2.9-9.7,6-12.1l-0.6-0.3c-3.1-1.3-4.4-4.5-4.4-7.4v-0.1c0-2.6,1.2-5.3,3.9-6.8
			c-3-2.8-4.4-6.2-4.4-11v-0.8c0-8.5,4.7-16.8,21.1-16.8h20.8c1.1,0,2.2,1,2.2,2.1v2.5C628.9,396.5,628.2,396.9,627.1,397z
			 M619.5,446.5c0-3.7-3.1-5.2-11.6-7.4l-10.7-2.8c-2.8,2.4-4.7,4.8-4.7,9.7v0.8c0,5.3,3.1,8.7,13.7,8.7c10.8,0,13.3-3,13.3-8.3
			V446.5z M618.7,407.5c0-5.7-2.6-10.2-12.8-10.2c-10.6,0-12.8,4.8-12.8,10.2v0.8c0,4.2,1.9,9.7,12.8,9.7c10.3,0,12.8-4,12.8-9.7
			V407.5z"/>
		<path fill="#00B4CD" d="M677.2,419.5h-31.8v1.3c0,11.3,4.5,15.5,13.2,15.5c5.5,0,12.5-0.4,16.9-1c0.2,0,0.3,0,0.5,0
			c0.7,0,1.5,0.4,1.5,1.3v3.2c0,1.2-0.4,1.9-1.9,2.2c-5.4,1-10.7,1.6-17,1.6c-10.9,0-21.6-5.1-21.6-22.8v-8.6
			c0-13.6,7.5-22.2,21.1-22.2c13.9,0,20.9,8.7,20.9,22.2v5.1C679,418.6,678.4,419.5,677.2,419.5z M670.6,412.2
			c0-10.7-4.1-14.9-12.5-14.9c-8.1,0-12.7,4.7-12.7,14.9v0.8h25.2V412.2z"/>
		<path fill="#00B4CD" d="M705.7,443.6c-3.5,0-10.4-0.3-15-1.4c-1.2-0.3-2-0.8-2-1.9V437c0-0.9,0.8-1.4,1.7-1.4c0.2,0,0.3,0,0.4,0
			c4.6,0.6,11.5,1,14.9,1c6.2,0,9.4-1.6,9.4-6.8c0-2.8-1.7-4.7-7.1-7.9l-9.6-5.7c-5.8-3.5-9.7-7.6-9.7-13.6
			c0-9.9,7.4-12.6,17.2-12.6c5.3,0,10.4,0.5,14.8,1.2c1.2,0.2,1.8,0.8,1.8,1.9v3.1c0,1.1-0.7,1.6-1.6,1.6c-0.1,0-0.2,0-0.3,0
			c-3.3-0.3-9.4-0.8-14.7-0.8c-5.3,0-8.8,0.7-8.8,5.5c0,2.9,2.2,4.7,6.6,7.2l9.4,5.6c7.9,4.6,10.5,8.7,10.5,14.3
			C723.5,439.5,716.4,443.6,705.7,443.6z"/>
		<path fill="#00B4CD" d="M765.2,442.6c-3.1,0.6-7.4,1-11.9,1c-12.9,0-20.2-9.1-20.2-23.1v-7.4c0-14,7.2-23.1,20.2-23.1
			c4.4,0,8.7,0.5,11.9,1c1.5,0.3,1.9,0.8,1.9,2.1v3.4c0,1-0.8,1.4-1.6,1.4c-0.2,0-0.3,0-0.4,0c-4.2-0.5-7.1-0.7-11.8-0.7
			c-7.6,0-11.9,5-11.9,15.8v7.4c0,10.6,4.2,15.8,11.9,15.8c4.6,0,7.6-0.2,11.8-0.7c0.1,0,0.2,0,0.4,0c0.8,0,1.6,0.5,1.6,1.4v3.4
			C767.1,441.7,766.7,442.3,765.2,442.6z"/>
		<path fill="#00B4CD" d="M815.8,442.9h-4.6c-1,0-1.9-0.9-1.9-1.9v-31.3c0-9.5-4-12.4-10.2-12.4c-2.9,0-8.9,0.8-13.1,2.7V441
			c0,1-0.8,1.9-1.9,1.9h-4.7c-1,0-1.8-0.9-1.8-1.9v-67.7c0-1,0.7-1.9,1.8-1.9h4.8c1.1,0,1.8,0.8,1.8,1.9v19.6
			c4.6-2,10.5-2.9,14.5-2.9c10.1,0,17.1,5.8,17.1,19.8V441C817.7,442.1,816.9,442.9,815.8,442.9z"/>
		<path fill="#00B4CD" d="M848.8,443.6c-14,0-21.1-9.2-21.1-23.2v-7.2c0-14,7.1-23.2,21.1-23.2c14,0,21.2,9.2,21.2,23.2v7.2
			C870,434.4,862.8,443.6,848.8,443.6z M861.7,413.2c0-9.7-3.9-15.9-12.8-15.9c-8.8,0-12.7,6.1-12.7,15.9v7.2
			c0,9.7,3.8,15.9,12.7,15.9c8.8,0,12.8-6.1,12.8-15.9V413.2z"/>
		<path fill="#00B4CD" d="M900.4,443.6c-14,0-21.1-9.2-21.1-23.2v-7.2c0-14,7.1-23.2,21.1-23.2c14,0,21.2,9.2,21.2,23.2v7.2
			C921.6,434.4,914.4,443.6,900.4,443.6z M913.3,413.2c0-9.7-3.9-15.9-12.8-15.9c-8.8,0-12.7,6.1-12.7,15.9v7.2
			c0,9.7,3.8,15.9,12.7,15.9c8.8,0,12.8-6.1,12.8-15.9V413.2z"/>
		<path fill="#00B4CD" d="M938.1,442.9h-5c-0.9,0-1.7-0.9-1.7-1.9v-67.8c0-1,0.7-1.8,1.7-1.8h5c0.9,0,1.7,0.8,1.7,1.8V441
			C939.8,442,939.1,442.9,938.1,442.9z"/>
	</g>
	<g>
		<g>
			<path fill="#A7A9AC" d="M36.6,505.6c-1.3,0.3-4.9,0.6-7.1,0.6c-5.5,0-9.7-1.5-9.7-8.6v-22.2c0-0.5,0.4-0.8,0.8-0.8h4.2
				c0.5,0,0.8,0.4,0.8,0.8v22.2c0,2.8,0.8,3.6,3.3,3.6h7.7c0.5,0,0.8,0.4,0.8,0.8v2.7C37.5,505.4,37.3,505.5,36.6,505.6z"/>
			<path fill="#A7A9AC" d="M48.3,505.9h-4.1c-0.5,0-0.8-0.4-0.8-0.8v-29.7c0-0.5,0.4-0.8,0.8-0.8h4.1c0.5,0,0.8,0.3,0.8,0.8v29.7
				C49.2,505.5,48.8,505.9,48.3,505.9z"/>
			<path fill="#A7A9AC" d="M66.7,506.2c-3,0-7-0.3-8.3-0.5c-0.7-0.1-1.1-0.5-1.1-1.3v-28.4c0-0.8,0.4-1.2,1.1-1.3
				c1.3-0.2,5.3-0.5,8.3-0.5c8.4,0,13.2,4.5,13.2,12.9v6.2C79.9,501.7,75.1,506.2,66.7,506.2z M74.1,487.1c0-6.3-3.2-8-7.4-8
				c-1.5,0-2.6,0.1-3.5,0.1v21.9c0.9,0,2,0.1,3.5,0.1c4.2,0,7.4-1.6,7.4-8V487.1z"/>
			<path fill="#A7A9AC" d="M122.8,475.5l-6.9,26.5c-1,3.9-4,4.3-5.8,4.3c-1.8,0-4.8-0.4-5.8-4.3l-6.9-26.5c0-0.1,0-0.1,0-0.2
				c0-0.4,0.3-0.7,0.8-0.7h4.5c0.4,0,0.7,0.3,0.8,0.7l6.1,25.4c0.1,0.5,0.3,0.7,0.7,0.7s0.6-0.2,0.7-0.7l6.1-25.4
				c0.1-0.4,0.4-0.7,0.8-0.7h4.4c0.4,0,0.8,0.3,0.8,0.7C122.9,475.4,122.8,475.4,122.8,475.5z"/>
			<path fill="#A7A9AC" d="M151.3,505.9h-4.5c-0.4,0-0.7-0.3-0.8-0.7l-1.9-8h-9.7l-1.9,8c-0.1,0.4-0.4,0.7-0.8,0.7h-4.4
				c-0.4,0-0.8-0.3-0.8-0.7c0,0,0-0.1,0-0.2l6.9-26.5c1-3.9,4-4.3,5.8-4.3c1.8,0,4.8,0.4,5.8,4.3L152,505c0,0.1,0,0.2,0,0.2
				C152,505.6,151.7,505.9,151.3,505.9z M140,479.8c-0.1-0.5-0.3-0.7-0.7-0.7c-0.4,0-0.6,0.2-0.7,0.7l-3,12.5h7.4L140,479.8z"/>
			<path fill="#A7A9AC" d="M179.7,505.9h-4.2c-1,0-1.9,0-2.5-1.5l-9.3-20.5c-0.1-0.2-0.3-0.3-0.4-0.3c-0.1,0-0.2,0.1-0.2,0.3v21.2
				c0,0.4-0.3,0.8-0.8,0.8h-3.6c-0.5,0-0.8-0.4-0.8-0.8v-28.8c0-0.9,0.8-1.7,1.7-1.7h4.5c0.9,0,1.3,0.2,1.8,1.4l9.8,21.7
				c0.1,0.2,0.2,0.3,0.3,0.3c0.1,0,0.2-0.1,0.2-0.4v-22.2c0-0.5,0.3-0.8,0.8-0.8h3.6c0.5,0,0.8,0.3,0.8,0.8v28.8
				C181.4,505.2,180.6,505.9,179.7,505.9z"/>
			<path fill="#A7A9AC" d="M211.2,506.2c-3,0-7-0.3-8.3-0.5c-0.7-0.1-1.1-0.5-1.1-1.3v-28.4c0-0.8,0.4-1.2,1.1-1.3
				c1.3-0.2,5.3-0.5,8.3-0.5c8.4,0,13.2,4.5,13.2,12.9v6.2C224.4,501.7,219.6,506.2,211.2,506.2z M218.6,487.1c0-6.3-3.2-8-7.4-8
				c-1.6,0-2.7,0.1-3.5,0.1v21.9c0.9,0,2,0.1,3.5,0.1c4.2,0,7.4-1.6,7.4-8V487.1z"/>
			<path fill="#A7A9AC" d="M249.4,505.6c-1.3,0.2-3,0.6-8,0.6c-5.5,0-9.7-1.5-9.7-8.6v-14.7c0-7.2,4.2-8.6,9.7-8.6
				c5,0,6.6,0.4,8,0.6c0.6,0.1,0.8,0.3,0.8,0.9v2.7c0,0.5-0.4,0.8-0.8,0.8h-8.6c-2.4,0-3.3,0.8-3.3,3.6v4.5h11.4
				c0.5,0,0.8,0.4,0.8,0.8v3c0,0.5-0.4,0.8-0.8,0.8h-11.4v5.4c0,2.8,0.9,3.6,3.3,3.6h8.6c0.5,0,0.8,0.4,0.8,0.8v2.7
				C250.2,505.4,250,505.6,249.4,505.6z"/>
		</g>
		<g>
			<path fill="#A7A9AC" d="M292.7,505.9h-4.4c-0.4,0-0.7-0.3-0.8-0.7l-1.9-8h-9.7l-1.9,8c-0.1,0.4-0.4,0.7-0.8,0.7h-4.4
				c-0.4,0-0.8-0.3-0.8-0.7c0,0,0-0.1,0-0.2l6.9-26.5c1-3.9,4-4.3,5.8-4.3c1.8,0,4.8,0.4,5.8,4.3l6.9,26.5c0,0.1,0,0.2,0,0.2
				C293.4,505.6,293.1,505.9,292.7,505.9z M281.3,479.8c-0.1-0.5-0.3-0.7-0.7-0.7c-0.4,0-0.5,0.2-0.7,0.7l-3,12.5h7.4L281.3,479.8z"
				/>
		</g>
		<g>
			<path fill="#A7A9AC" d="M307.1,506.2c-3.1,0-5.4-0.3-7.4-0.8c-0.4-0.1-0.8-0.4-0.8-0.8v-3c0-0.5,0.4-0.8,0.8-0.8c0,0,0,0,0.1,0
				c1.7,0.2,5.9,0.4,7.4,0.4c3.7,0,4.9-1.4,4.9-3.8c0-1.6-0.8-2.5-3.6-4.2l-5.5-3.3c-3.9-2.3-5-4.8-5-7.7c0-4.6,2.7-8,10.5-8
				c2.8,0,6.6,0.4,8.1,0.7c0.4,0.1,0.7,0.4,0.7,0.8v3.1c0,0.4-0.3,0.7-0.7,0.7c0,0,0,0-0.1,0c-2.8-0.2-5.5-0.4-8.3-0.4
				c-3.1,0-4.4,1.1-4.4,3c0,1.4,0.7,2.2,3.4,3.8l5.1,2.8c4.6,2.6,5.8,5.3,5.8,8.6C318.1,501.7,315.5,506.2,307.1,506.2z"/>
			<path fill="#A7A9AC" d="M332.9,506.2c-3.1,0-5.4-0.3-7.4-0.8c-0.4-0.1-0.8-0.4-0.8-0.8v-3c0-0.5,0.4-0.8,0.8-0.8c0,0,0,0,0.1,0
				c1.7,0.2,5.9,0.4,7.4,0.4c3.7,0,4.8-1.4,4.8-3.8c0-1.6-0.8-2.5-3.6-4.2l-5.5-3.3c-3.9-2.3-5-4.8-5-7.7c0-4.6,2.7-8,10.5-8
				c2.8,0,6.6,0.4,8.1,0.7c0.4,0.1,0.7,0.4,0.7,0.8v3.1c0,0.4-0.3,0.7-0.7,0.7c0,0,0,0-0.1,0c-2.8-0.2-5.5-0.4-8.3-0.4
				c-3.1,0-4.4,1.1-4.4,3c0,1.4,0.7,2.2,3.4,3.8l5,2.8c4.6,2.6,5.8,5.3,5.8,8.6C343.9,501.7,341.3,506.2,332.9,506.2z"/>
			<path fill="#A7A9AC" d="M361.9,506.2c-6.9,0-11.9-3.9-11.9-13.1v-5.7c0-9.3,5-13.1,11.9-13.1c6.9,0,12,3.9,12,13.1v5.7
				C373.9,502.4,368.8,506.2,361.9,506.2z M368,487.4c0-5.6-2-8.1-6.1-8.1c-4.1,0-6.1,2.5-6.1,8.1v5.7c0,5.6,2,8.1,6.1,8.1
				c4.1,0,6.1-2.5,6.1-8.1V487.4z"/>
			<path fill="#A7A9AC" d="M398.8,505.6c-0.6,0.2-3.4,0.7-6.6,0.7c-5.1,0-11.9-2.5-11.9-12.9v-6.2c0-10.6,6.8-12.9,11.9-12.9
				c3.2,0,6,0.5,6.6,0.7c0.6,0.2,0.9,0.4,0.9,1v2.8c0,0.5-0.2,0.9-0.8,0.9c0,0,0,0-0.1,0c-1.5-0.1-4.3-0.3-6.5-0.3
				c-3.5,0-6.1,1.9-6.1,7.9v6.2c0,5.9,2.5,7.9,6.1,7.9c2.2,0,5.1-0.2,6.5-0.3c0,0,0.1,0,0.1,0c0.6,0,0.8,0.4,0.8,0.9v2.8
				C399.8,505.2,399.4,505.4,398.8,505.6z"/>
			<path fill="#A7A9AC" d="M411.7,505.9h-4.1c-0.5,0-0.8-0.4-0.8-0.8v-29.7c0-0.5,0.4-0.8,0.8-0.8h4.1c0.5,0,0.8,0.3,0.8,0.8v29.7
				C412.5,505.5,412.1,505.9,411.7,505.9z"/>
			<path fill="#A7A9AC" d="M443.1,505.9h-4.4c-0.4,0-0.7-0.3-0.8-0.7l-1.9-8h-9.6l-2,8c-0.1,0.4-0.4,0.7-0.8,0.7h-4.4
				c-0.4,0-0.8-0.3-0.8-0.7c0,0,0-0.1,0-0.2l6.9-26.5c1-3.9,4-4.3,5.8-4.3c1.8,0,4.8,0.4,5.8,4.3l6.9,26.5c0,0.1,0,0.2,0,0.2
				C443.8,505.6,443.5,505.9,443.1,505.9z M431.8,479.8c-0.1-0.5-0.3-0.7-0.7-0.7c-0.4,0-0.6,0.2-0.7,0.7l-3,12.5h7.4L431.8,479.8z"
				/>
			<path fill="#A7A9AC" d="M468.9,479.5h-7.3v25.6c0,0.4-0.4,0.8-0.8,0.8h-4.2c-0.5,0-0.8-0.4-0.8-0.8v-25.6h-7.3
				c-0.5,0-0.8-0.3-0.8-0.8v-3.3c0-0.5,0.4-0.8,0.8-0.8h20.5c0.5,0,0.8,0.3,0.8,0.8v3.3C469.7,479.1,469.4,479.5,468.9,479.5z"/>
			<path fill="#A7A9AC" d="M480.8,505.9h-4.1c-0.4,0-0.8-0.4-0.8-0.8v-29.7c0-0.5,0.4-0.8,0.8-0.8h4.1c0.5,0,0.8,0.3,0.8,0.8v29.7
				C481.6,505.5,481.2,505.9,480.8,505.9z"/>
			<path fill="#A7A9AC" d="M507.4,505.6c-1.4,0.2-3,0.6-8,0.6c-5.5,0-9.7-1.5-9.7-8.6v-14.7c0-7.2,4.2-8.6,9.7-8.6
				c5,0,6.6,0.4,8,0.6c0.6,0.1,0.8,0.3,0.8,0.9v2.7c0,0.5-0.4,0.8-0.8,0.8h-8.6c-2.4,0-3.3,0.8-3.3,3.6v4.5h11.4
				c0.5,0,0.8,0.4,0.8,0.8v3c0,0.5-0.4,0.8-0.8,0.8h-11.4v5.4c0,2.8,0.9,3.6,3.3,3.6h8.6c0.5,0,0.8,0.4,0.8,0.8v2.7
				C508.3,505.4,508,505.6,507.4,505.6z"/>
			<path fill="#A7A9AC" d="M539.5,506.2c-6.8,0-11.5-3-11.5-11.9v-18.9c0-0.5,0.4-0.8,0.8-0.8h4.2c0.5,0,0.8,0.3,0.8,0.8v18.9
				c0,4.8,1.2,7.1,5.7,7.1c4.5,0,5.7-2.3,5.7-7.1v-18.9c0-0.5,0.4-0.8,0.8-0.8h4.2c0.5,0,0.8,0.3,0.8,0.8v18.9
				C551,503.3,546.2,506.2,539.5,506.2z"/>
			<path fill="#A7A9AC" d="M580.9,505.9h-4.2c-1,0-1.9,0-2.6-1.5l-9.3-20.5c-0.1-0.2-0.3-0.3-0.4-0.3c-0.1,0-0.2,0.1-0.2,0.3v21.2
				c0,0.4-0.3,0.8-0.8,0.8h-3.6c-0.5,0-0.8-0.4-0.8-0.8v-28.8c0-0.9,0.7-1.7,1.7-1.7h4.5c0.9,0,1.3,0.2,1.8,1.4l9.8,21.7
				c0.1,0.2,0.2,0.3,0.3,0.3c0.1,0,0.2-0.1,0.2-0.4v-22.2c0-0.5,0.3-0.8,0.8-0.8h3.6c0.5,0,0.8,0.3,0.8,0.8v28.8
				C582.6,505.2,581.8,505.9,580.9,505.9z"/>
			<path fill="#A7A9AC" d="M595.7,505.9h-4.2c-0.4,0-0.8-0.4-0.8-0.8v-29.7c0-0.5,0.4-0.8,0.8-0.8h4.2c0.5,0,0.8,0.3,0.8,0.8v29.7
				C596.5,505.5,596.2,505.9,595.7,505.9z"/>
			<path fill="#A7A9AC" d="M628,475.5l-6.9,26.5c-1,3.9-4,4.3-5.8,4.3c-1.8,0-4.8-0.4-5.8-4.3l-6.9-26.5c0-0.1,0-0.1,0-0.2
				c0-0.4,0.3-0.7,0.7-0.7h4.5c0.4,0,0.7,0.3,0.8,0.7l6.1,25.4c0.1,0.5,0.3,0.7,0.7,0.7c0.4,0,0.6-0.2,0.7-0.7l6.1-25.4
				c0.1-0.4,0.4-0.7,0.8-0.7h4.4c0.4,0,0.7,0.3,0.7,0.7C628.1,475.4,628,475.4,628,475.5z"/>
			<path fill="#A7A9AC" d="M651.8,505.6c-1.3,0.2-3,0.6-8,0.6c-5.4,0-9.7-1.5-9.7-8.6v-14.7c0-7.2,4.2-8.6,9.7-8.6
				c5,0,6.6,0.4,8,0.6c0.6,0.1,0.8,0.3,0.8,0.9v2.7c0,0.5-0.4,0.8-0.8,0.8h-8.6c-2.4,0-3.3,0.8-3.3,3.6v4.5h11.4
				c0.5,0,0.8,0.4,0.8,0.8v3c0,0.5-0.4,0.8-0.8,0.8h-11.4v5.4c0,2.8,0.9,3.6,3.3,3.6h8.6c0.5,0,0.8,0.4,0.8,0.8v2.7
				C652.6,505.4,652.4,505.6,651.8,505.6z"/>
			<path fill="#A7A9AC" d="M682.3,505.9h-5.1c-0.5,0-0.6-0.4-0.8-0.8l-6-11.3h-0.6c-1.1,0-2.8-0.1-3.7-0.2v11.5
				c0,0.4-0.3,0.8-0.8,0.8H661c-0.5,0-0.8-0.4-0.8-0.8v-29c0-0.8,0.5-1.1,1.3-1.3c2.2-0.4,5.2-0.5,8.2-0.5c6.5,0,12.1,2.3,12.1,9.5
				v0.4c0,4.5-2.2,7.2-5.7,8.6l6.6,12.3c0.1,0.1,0.1,0.2,0.1,0.3C682.8,505.7,682.6,505.9,682.3,505.9z M676,483.8
				c0-3.2-2.1-4.5-6.3-4.5c-0.9,0-3,0.1-3.7,0.2v9.5c0.7,0,3,0.1,3.7,0.1c4.3,0,6.3-1.2,6.3-4.9V483.8z"/>
			<path fill="#A7A9AC" d="M697.2,506.2c-3.2,0-5.4-0.3-7.4-0.8c-0.4-0.1-0.8-0.4-0.8-0.8v-3c0-0.5,0.4-0.8,0.8-0.8c0,0,0,0,0.1,0
				c1.7,0.2,5.9,0.4,7.4,0.4c3.7,0,4.9-1.4,4.9-3.8c0-1.6-0.8-2.5-3.6-4.2l-5.6-3.3c-3.9-2.3-4.9-4.8-4.9-7.7c0-4.6,2.7-8,10.5-8
				c2.8,0,6.6,0.4,8,0.7c0.4,0.1,0.8,0.4,0.8,0.8v3.1c0,0.4-0.3,0.7-0.7,0.7c-0.1,0-0.1,0-0.1,0c-2.8-0.2-5.6-0.4-8.3-0.4
				c-3.1,0-4.4,1.1-4.4,3c0,1.4,0.7,2.2,3.4,3.8l5,2.8c4.6,2.6,5.8,5.3,5.8,8.6C708.3,501.7,705.6,506.2,697.2,506.2z"/>
			<path fill="#A7A9AC" d="M720.2,505.9H716c-0.5,0-0.8-0.4-0.8-0.8v-29.7c0-0.5,0.4-0.8,0.8-0.8h4.2c0.5,0,0.8,0.3,0.8,0.8v29.7
				C721,505.5,720.6,505.9,720.2,505.9z"/>
			<path fill="#A7A9AC" d="M748.4,479.5h-7.3v25.6c0,0.4-0.4,0.8-0.8,0.8h-4.2c-0.5,0-0.8-0.4-0.8-0.8v-25.6h-7.3
				c-0.5,0-0.8-0.3-0.8-0.8v-3.3c0-0.5,0.4-0.8,0.8-0.8h20.5c0.5,0,0.8,0.3,0.8,0.8v3.3C749.3,479.1,748.9,479.5,748.4,479.5z"/>
			<path fill="#A7A9AC" d="M773,505.6c-1.3,0.2-3,0.6-8,0.6c-5.5,0-9.7-1.5-9.7-8.6v-14.7c0-7.2,4.2-8.6,9.7-8.6c5,0,6.6,0.4,8,0.6
				c0.6,0.1,0.8,0.3,0.8,0.9v2.7c0,0.5-0.4,0.8-0.8,0.8h-8.6c-2.4,0-3.3,0.8-3.3,3.6v4.5h11.4c0.5,0,0.8,0.4,0.8,0.8v3
				c0,0.5-0.4,0.8-0.8,0.8h-11.4v5.4c0,2.8,0.9,3.6,3.3,3.6h8.6c0.5,0,0.8,0.4,0.8,0.8v2.7C773.8,505.4,773.6,505.6,773,505.6z"/>
			<path fill="#A7A9AC" d="M786.4,505.9h-4.2c-0.5,0-0.8-0.4-0.8-0.8v-29.7c0-0.5,0.4-0.8,0.8-0.8h4.2c0.5,0,0.8,0.3,0.8,0.8v29.7
				C787.2,505.5,786.8,505.9,786.4,505.9z"/>
			<path fill="#A7A9AC" d="M814.6,479.5h-7.3v25.6c0,0.4-0.4,0.8-0.8,0.8h-4.2c-0.5,0-0.8-0.4-0.8-0.8v-25.6h-7.3
				c-0.5,0-0.8-0.3-0.8-0.8v-3.3c0-0.5,0.4-0.8,0.8-0.8h20.5c0.4,0,0.8,0.3,0.8,0.8v3.3C815.5,479.1,815.1,479.5,814.6,479.5z"/>
			<path fill="#A7A9AC" d="M853.4,505.5c-2.1,0.4-4.8,0.7-9.1,0.7c-4.5,0-11.2-3-11.2-13v-6c0-10,6.4-13,11.4-13c4,0,7.6,0.5,9,0.7
				c0.5,0.1,0.8,0.3,0.8,0.9v2.8c0,0.6-0.2,0.9-0.8,0.9c0,0-0.1,0-0.1,0c-2-0.2-4.8-0.3-8.9-0.3c-2.8,0-5.5,2-5.5,8v6
				c0,6,2.9,7.9,5.4,7.9c1.5,0,2.8,0,4.2-0.1v-10.8c0-0.4,0.3-0.8,0.8-0.8h4.1c0.5,0,0.8,0.4,0.8,0.8v14.2
				C854.2,505.1,853.9,505.4,853.4,505.5z"/>
			<path fill="#A7A9AC" d="M880,505.6c-1.3,0.2-3,0.6-8,0.6c-5.5,0-9.7-1.5-9.7-8.6v-14.7c0-7.2,4.2-8.6,9.7-8.6c5,0,6.6,0.4,8,0.6
				c0.6,0.1,0.8,0.3,0.8,0.9v2.7c0,0.5-0.4,0.8-0.8,0.8h-8.6c-2.4,0-3.3,0.8-3.3,3.6v4.5h11.4c0.5,0,0.8,0.4,0.8,0.8v3
				c0,0.5-0.4,0.8-0.8,0.8h-11.4v5.4c0,2.8,0.9,3.6,3.3,3.6h8.6c0.5,0,0.8,0.4,0.8,0.8v2.7C880.8,505.4,880.6,505.6,880,505.6z"/>
			<path fill="#A7A9AC" d="M910.2,505.9H906c-1,0-1.9,0-2.6-1.5l-9.3-20.5c-0.1-0.2-0.2-0.3-0.4-0.3c-0.1,0-0.2,0.1-0.2,0.3v21.2
				c0,0.4-0.3,0.8-0.8,0.8h-3.6c-0.4,0-0.8-0.4-0.8-0.8v-28.8c0-0.9,0.7-1.7,1.7-1.7h4.5c0.9,0,1.4,0.2,1.9,1.4l9.7,21.7
				c0.1,0.2,0.2,0.3,0.3,0.3c0.1,0,0.2-0.1,0.2-0.4v-22.2c0-0.5,0.3-0.8,0.8-0.8h3.6c0.5,0,0.8,0.3,0.8,0.8v28.8
				C911.9,505.2,911.2,505.9,910.2,505.9z"/>
			<path fill="#A7A9AC" d="M939.3,479.5H932v25.6c0,0.4-0.3,0.8-0.8,0.8H927c-0.5,0-0.8-0.4-0.8-0.8v-25.6h-7.3
				c-0.5,0-0.8-0.3-0.8-0.8v-3.3c0-0.5,0.4-0.8,0.8-0.8h20.5c0.4,0,0.8,0.3,0.8,0.8v3.3C940.2,479.1,939.8,479.5,939.3,479.5z"/>
		</g>
	</g>
</g>
</svg>
