<?xml version="1.0" encoding="utf-8"?>
<!-- Generator: Adobe Illustrator 18.1.1, SVG Export Plug-In . SVG Version: 6.00 Build 0)  -->
<svg version="1.1" id="Laag_1" xmlns="http://www.w3.org/2000/svg" xmlns:xlink="http://www.w3.org/1999/xlink" x="0px" y="0px"
	 viewBox="0 0 560 560" enable-background="new 0 0 560 560" xml:space="preserve">
<g>
	<path fill="#CB2128" d="M279,549.7c-149.4,0-271-121.5-271-271S129.5,8,279,8s271,121.5,271,271S428.4,549.7,279,549.7z M279,73.5
		C165.6,73.5,73.5,165.6,73.5,279S165.6,484.5,279,484.5S484.5,392.3,484.5,279S392.3,73.5,279,73.5z"/>
	<circle fill="#7C6765" cx="279" cy="279" r="114.1"/>
</g>
<path opacity="0.38" fill="#070909" enable-background="new    " d="M346.4,269c-112.2-45.8-75.3,95.1-75.3,95.1
	C287.4,350.4,422.6,300.1,346.4,269z"/>
<circle fill="#7C6765" cx="326.7" cy="295.3" r="16.3"/>
<path fill="#CB2128" d="M281.6,207.1c-120.9-9.5-10.3,156.5-10.3,156.5C285.3,347.2,362,213.1,281.6,207.1z"/>
<circle fill="#7C6765" cx="271.3" cy="243.2" r="19.8"/>
</svg>
